<mxfile host="app.diagrams.net" agent="Mozilla/5.0 (Windows NT 10.0; Win64; x64) AppleWebKit/537.36 (KHTML, like Gecko) Chrome/131.0.0.0 Safari/537.36" version="24.9.0">
  <diagram name="Страница — 1" id="gURiVpze26o2hxipI9vg">
    <mxGraphModel dx="1195" dy="743" grid="1" gridSize="10" guides="1" tooltips="1" connect="1" arrows="1" fold="1" page="1" pageScale="1" pageWidth="827" pageHeight="1169" math="0" shadow="0">
      <root>
        <mxCell id="0" />
        <mxCell id="1" parent="0" />
        <mxCell id="pSl4RCO3KM7pjzlCokw0-1" value="&lt;font style=&quot;font-size: 16px;&quot;&gt;Уровень инфраструктуры&lt;/font&gt;" style="rounded=0;whiteSpace=wrap;html=1;verticalAlign=top;spacingTop=10;fontColor=#7D7D7D;horizontal=0;fillColor=none;dashed=1;" vertex="1" parent="1">
          <mxGeometry y="70" width="827" height="280" as="geometry" />
        </mxCell>
        <mxCell id="pSl4RCO3KM7pjzlCokw0-4" value="&lt;font style=&quot;font-size: 16px;&quot;&gt;Уровень проекта&lt;/font&gt;" style="rounded=0;whiteSpace=wrap;html=1;verticalAlign=top;spacingTop=10;fontColor=#7D7D7D;horizontal=0;fillColor=none;dashed=1;" vertex="1" parent="1">
          <mxGeometry y="390" width="827" height="210" as="geometry" />
        </mxCell>
        <mxCell id="pSl4RCO3KM7pjzlCokw0-73" style="edgeStyle=orthogonalEdgeStyle;rounded=0;orthogonalLoop=1;jettySize=auto;html=1;exitX=0.5;exitY=0;exitDx=0;exitDy=0;entryX=0.5;entryY=1;entryDx=0;entryDy=0;" edge="1" parent="1" source="pSl4RCO3KM7pjzlCokw0-6" target="pSl4RCO3KM7pjzlCokw0-67">
          <mxGeometry relative="1" as="geometry" />
        </mxCell>
        <mxCell id="pSl4RCO3KM7pjzlCokw0-6" value="&lt;font style=&quot;font-size: 15px;&quot;&gt;Данные&lt;/font&gt;" style="rounded=0;whiteSpace=wrap;html=1;fillColor=default;opacity=50;" vertex="1" parent="1">
          <mxGeometry x="60" y="510" width="120" height="60" as="geometry" />
        </mxCell>
        <mxCell id="pSl4RCO3KM7pjzlCokw0-63" style="edgeStyle=orthogonalEdgeStyle;rounded=0;orthogonalLoop=1;jettySize=auto;html=1;exitX=0.25;exitY=0;exitDx=0;exitDy=0;entryX=0.75;entryY=1;entryDx=0;entryDy=0;" edge="1" parent="1" source="pSl4RCO3KM7pjzlCokw0-7" target="pSl4RCO3KM7pjzlCokw0-39">
          <mxGeometry relative="1" as="geometry">
            <Array as="points">
              <mxPoint x="703" y="420" />
            </Array>
          </mxGeometry>
        </mxCell>
        <mxCell id="pSl4RCO3KM7pjzlCokw0-7" value="&lt;font style=&quot;font-size: 14px;&quot;&gt;Результаты экспериментов&lt;/font&gt;" style="rounded=0;whiteSpace=wrap;html=1;fillColor=default;opacity=50;" vertex="1" parent="1">
          <mxGeometry x="663" y="420" width="120" height="60" as="geometry" />
        </mxCell>
        <mxCell id="pSl4RCO3KM7pjzlCokw0-54" style="edgeStyle=orthogonalEdgeStyle;rounded=0;orthogonalLoop=1;jettySize=auto;html=1;exitX=0.5;exitY=0;exitDx=0;exitDy=0;entryX=0.5;entryY=1;entryDx=0;entryDy=0;" edge="1" parent="1" source="pSl4RCO3KM7pjzlCokw0-9">
          <mxGeometry relative="1" as="geometry">
            <mxPoint x="429" y="310" as="targetPoint" />
          </mxGeometry>
        </mxCell>
        <mxCell id="pSl4RCO3KM7pjzlCokw0-61" style="edgeStyle=orthogonalEdgeStyle;rounded=0;orthogonalLoop=1;jettySize=auto;html=1;exitX=0.5;exitY=1;exitDx=0;exitDy=0;entryX=0.5;entryY=1;entryDx=0;entryDy=0;" edge="1" parent="1" source="pSl4RCO3KM7pjzlCokw0-9" target="pSl4RCO3KM7pjzlCokw0-7">
          <mxGeometry relative="1" as="geometry">
            <Array as="points">
              <mxPoint x="429" y="580" />
              <mxPoint x="723" y="580" />
            </Array>
          </mxGeometry>
        </mxCell>
        <mxCell id="pSl4RCO3KM7pjzlCokw0-9" value="&lt;font style=&quot;font-size: 15px;&quot;&gt;Исходный код&lt;/font&gt;" style="rounded=0;whiteSpace=wrap;html=1;fillColor=default;opacity=50;" vertex="1" parent="1">
          <mxGeometry x="370" y="420" width="120" height="60" as="geometry" />
        </mxCell>
        <mxCell id="pSl4RCO3KM7pjzlCokw0-76" style="edgeStyle=orthogonalEdgeStyle;rounded=0;orthogonalLoop=1;jettySize=auto;html=1;exitX=0.5;exitY=0;exitDx=0;exitDy=0;entryX=0.75;entryY=1;entryDx=0;entryDy=0;" edge="1" parent="1" source="pSl4RCO3KM7pjzlCokw0-10" target="pSl4RCO3KM7pjzlCokw0-66">
          <mxGeometry relative="1" as="geometry" />
        </mxCell>
        <mxCell id="pSl4RCO3KM7pjzlCokw0-10" value="&lt;font style=&quot;font-size: 15px;&quot;&gt;Документация&lt;/font&gt;" style="rounded=0;whiteSpace=wrap;html=1;fillColor=default;opacity=50;" vertex="1" parent="1">
          <mxGeometry x="501" y="420" width="120" height="60" as="geometry" />
        </mxCell>
        <mxCell id="pSl4RCO3KM7pjzlCokw0-11" value="&lt;font style=&quot;font-size: 15px;&quot;&gt;Хостинг репозитория&lt;/font&gt;" style="rounded=0;whiteSpace=wrap;html=1;horizontal=1;labelPosition=center;verticalLabelPosition=middle;align=center;verticalAlign=top;fillColor=default;opacity=50;" vertex="1" parent="1">
          <mxGeometry x="339" y="100" width="180" height="100" as="geometry" />
        </mxCell>
        <mxCell id="pSl4RCO3KM7pjzlCokw0-14" value="" style="shape=image;verticalLabelPosition=bottom;labelBackgroundColor=default;verticalAlign=top;aspect=fixed;imageAspect=0;image=data:image/png,iVBORw0KGgoAAAANSUhEUgAAAEAAAABACAYAAACqaXHeAAAACXBIWXMAAAsTAAALEwEAmpwYAAAEDElEQVR4nO2ay0tVQRzHT2JUUNgLCnRRgY/ETNPKyhYJ0YNq1aKlRfYEw1rUKooWkqYmPaxW0T9RURr0MhF60LYyy0VlalGZWvaJ4Q50k3PvnZkzc+8VzgcuyPWc3/f7m3vOPH4znhcSEhISEuIUoAA4ALQB7cBrYBAYkx/x9yv5v8vAfiDfm8wAJUAz0Ic574EmYLk3GQCmANuBTuzzGNgmNLx0BFgFdOOeLqDcSxeAGcAFYJzkIbRagempTj4feEHqeAbkpir51cBnUo8YQSqTnfwWYJj04QewOVnJVwDfST+GnT8JRN75IdKXAWd9ApHePlGH1wGcBm4DIxYT+wnckrHvJLj2qZPRAbioYHR31PULgJPAxwCJfwDqgKyouDsV7jvvYpIzriCc53PvHOCGQfLXgdk+8XIV7v0NrLA5ve1WNJ0VJ04tcAWoBkqBbPlaiU+O/K5aXlMbJ45oUBU6rUybicztVckMLJjYT6aGny02BDs1BOdayTK+nywNP49sLGl1KLCWaWxPi7QcQXEQsWZNsV1Ws/X3VKXpqTGIWJ+G0B8r71xiTxukliq9QWZ9Opy1nm1sb6JKpIP+7JBIDU+VXmCak2z9vU0H3mn422ci0qYhUOMkU3s/0CUTgQ7F4GLOP8tJlvH9zdRYb9wxEehRDH7TSYZqHsWiS4XXJsEHFIM3OMlOzeM5RY/9JsFHFYPXOclOzeMxRY8jJsHHFIMfdZKd3QYYNQn+Jd3G/wCvwKDLTrDdSXZqHu+57AQ7FIP/AuY5yTC+v/lSW4W7JgLXUKfeSZbx/TVo+GszEajRLFoWOcnU31uxZtF1j4lIEXqI9UC2k4z/95Ujt811WGoq9kZTSCyfK6xn/c9PGfBW01NPEMFW9BmVhRRr5TERC2jRmJtE0xJEuBRzvsoKr9hKyzDQzgDWAFdlLFPMS2IC4IlP0CFZ5habJd8UTIh1xV5PEbF+11iLxOOhqmZMgB0+gUVJql7+SnkKnVKXTsFE7hX4NbwuW1U1E22MiAT8OBX1qsRaPInGKjGsSIsdHlM6dTVjAqyMsTUmkl4orzkUw8g9z/16fyKi4cpMdXVHhONR15zxqdie8AwBDhs2QLOpZqJC5HMfsZfRe3DyaWmQQ+HBIOsEYJPhuSE3BVoiO7N+54L2OtIr10y+3/mhKaBSzv0nDovFjmZ+Okdk1tr24AuwUR5MikZMVo5MOMwwNcjjqNEA4sxSlamOEcB6+cj5jQw9cuNiNEhvrNgAn4B1XioAliicG3LZAKLDW2w3K7PRoSnOERoXDSC0GpO5HZcQcSYHeJCEBuhyueS2MW3eKhYhDhrgfjK2360BLJOvRmGAGIWy9J20cpsTTOsBbtyEhISEhIR4kr+i680TiXDwqwAAAABJRU5ErkJggg==;" vertex="1" parent="1">
          <mxGeometry x="360" y="130" width="64" height="64" as="geometry" />
        </mxCell>
        <mxCell id="pSl4RCO3KM7pjzlCokw0-21" value="&lt;font style=&quot;font-size: 15px;&quot;&gt;S3-совместимое хранилище&lt;/font&gt;" style="rounded=0;whiteSpace=wrap;html=1;horizontal=1;labelPosition=center;verticalLabelPosition=middle;align=center;verticalAlign=top;fillColor=default;gradientColor=none;opacity=50;" vertex="1" parent="1">
          <mxGeometry x="80" y="100" width="220" height="100" as="geometry" />
        </mxCell>
        <mxCell id="pSl4RCO3KM7pjzlCokw0-20" value="" style="shape=image;verticalLabelPosition=bottom;labelBackgroundColor=default;verticalAlign=top;aspect=fixed;imageAspect=0;image=data:image/png,iVBORw0KGgoAAAANSUhEUgAAAGQAAABkCAYAAABw4pVUAAAAAXNSR0IArs4c6QAABFlJREFUeAHtmjFuFEEQRZ0hCAiISJAsRGRCzkFISkhKTARX4ApcgZCUkAjZoU9BgIQQnx2xHnX/neqe3emtrhbfEmJ+1VT/rley19Oeiwt9iYAIiIAIiIAIiIAIiIAIiIAIiIAIiIAIiIAIiIAIiEBoAgCeAHgL4BuAGwAfADw716a9/c7VR9N1ATwC8BrAFwB/sPw1DWga1OOt5t5+W/frUg/g/u474BWAzwB+Lc9gMfobwFcAbwA8XLtZb7+1++p6H4B7AF4C+ATgxyLu44I/9wOdvrsecHPefuwfXnsD8vYLP4DSBr1/hHj7lXoPn/P+kPX2Cz+A0gYBXAJ4B+D7/t90fVmq2ZLz9tuy1+a1AG4BfNx9EL9otTiA5/tnlRte09uP/cNr+gXq7qHv6tiN735Le7p/Jpl+/Z2/eJ058e/i7H7sH14ToFRWYVlDSBdhAGmOrs/ix/7hNUGx5DU3AuDaujmNL9Slaeu6mR/7h9cWEY5zI5y3dO869g+vLZAc50Y4b+nedewfXlsgOc6NcN7SvevYP7y2QHKcG+G8pXvXsX94bYHkODfCeUv3rmP/8NoCyXFuhPOW7l3H/uG1BZLj3AjnLd27jv3Dawskx7kRzlu6dx37h9ejPOBZA6f4wQNl+AEsbXCEIxACn8rqkctSz8PErOFwAymR5E2U8IeS3MdQGsDVDvz7CThvfD+EKXf0EHitO+3td+c7/+/9/pG339xo5AvvP1V6+0VmP+/N+4/53n5zo5EvvF938faLzH5xb96AvP0Wmx4l6P0jxNtvlDks7tP7Q9bbb7HpUYLe7x95+4Wag/f7R95+oWCv2cyoRwtrj07WMAh1Dw0kldXDMAtKugg3m+bo+ix+7B9eExRLHhwXj3IcHn4AvEFrAhwftY73HV4zeEtzI9Z9HO9dx/7hNQO0NDdi3cfx3nXsH14zQEtzI9Z9HO9dx/7hNQO0NDdi3cfx3nXsH14zQEtzI9Z9HO9dx/7hNQO0NDdi3cfx3nXsH14zQEtzI9Z9HO9dx/7h9SgPeDxoQx88wIYfwNIGRzgCMQYwhatHLks9DxOzhsMNEKCToXj7cR9Dae/3j7z9hhpGi83q/aoWFDeuoT/FbgTYolwvK7SguHENvc6zEWDrcg2kNdGG6+lHVkOYrZfSh3prog3X+6/fr2rIcdVSer9qFSa/m7yPTvw6G9SJBpLK6rmWdX6VLjIoln7bTuEVrg+Ow0897u/X6SDOhSFkKW4nSxYE10lXCBRYZileJksWBNdJVwgUWGYpXiZLFgTXSVcIFFhmKV4mSxYE10lXCBRYZileJksWBNdJVwgUWGYpXiZLFgTXSVcIFFhmKV4mSxYE10lXCBRYZileJksWBNdJVwic+oBXmEGaOnigrGxH6YnAKUcgKXW6rh65iPoRBKzh8BIaAhNx0Hq/ygGyLERABERABERABERABERABERABERABERABERABERABAIR+AuR5JQOPQLTxAAAAABJRU5ErkJggg==;" vertex="1" parent="1">
          <mxGeometry x="164" y="136" width="52" height="52" as="geometry" />
        </mxCell>
        <mxCell id="pSl4RCO3KM7pjzlCokw0-24" value="" style="rounded=0;whiteSpace=wrap;html=1;horizontal=1;labelPosition=center;verticalLabelPosition=middle;align=center;verticalAlign=top;fillColor=default;opacity=50;" vertex="1" parent="1">
          <mxGeometry x="563" y="100" width="220" height="100" as="geometry" />
        </mxCell>
        <mxCell id="pSl4RCO3KM7pjzlCokw0-25" value="" style="shape=image;verticalLabelPosition=bottom;labelBackgroundColor=default;verticalAlign=top;aspect=fixed;imageAspect=0;image=data:image/png,iVBORw0KGgoAAAANSUhEUgAAAxgAAAEiCAYAAAB6A3SGAAA8sklEQVR42u2dCZgcRfm4ewZIuBMRlENOQQEBOURuiLubCHJ4EURAReVUFP4CP1GERRBNiCTZ7t6ERSAIihpAQW5RQI7sbIgQYoRgjunqycXObAgQrpBk/tU7SwyQa7PTX1V3v+/z1INCsjv9dU/191bVV+U4AAAAAAAAAACQUMaoXRw3+IpuF+Y9NTrnhXfmPPW0bkHOCzr1PxfqVl1Fi/7bS91/1g2ey7nq7/pnjM97oef46seOH57stKgDnNbOTQk0AAAAAEDaaJs5QCf+x2kBGBHJgBaDBauRh/o2XxV1u71bPFrDA53x1fW4IQAAAAAAScMLdo5mJ3SS/0/dlogJxZrbQi05dzmeOo2bBAAAAABgM+70zR1XnZ3zwnaLhGKlLe+rcdwwAAAAAAAbGT3rk3lPjdWJ++u2i8W7jRkMAAAAAADbcIP9cl7wF52wL0uKWCwXjLGl7biBAAAAAAA2MKq4U94LbkuaVKxQ+D2NmwgAAAAAYJpxxQ3zfniVTtLfSqxcRPUXnhrLzQQAAAAAMIlXHKST85lJFovly6NcdSI3FAAAAADABO70/nlXjUpincUq2jLHnbcVNxYAAAAAQJqW0m46IX8mJWLR08LJ3FgAAAAAAGlaS0frhPzldMlFd/3FaG4uAAAAAIAknjpfJ+NL0yYX3fUXvjqOGwwAAAAAIEG1msv76po0ikVPW+q0zRzAjQYAAAAAkJCL2mnc1fS2oMCNBgAAAABALupTf+GqYdxsAAAAAICYyXvByLTLRc/5F03cbQAAAACAOPGCi7IgF7otdtrmbswNBwAAAACITS7CE1J0gN6a6i8e44YDAAAAAMSFrz6lE+/XMjJ7EZ1/cQU3HQAAAAAgDkbM30Qn3f/JilzU6i/CI7jxAAAAAAAxkPfDG7MkF7q94TRP7cedBwAAAACoN7W6i2rG2kPceAAAAACAejOytIVOtudnTTAcT13CzQcAAAAAqDN5T12fhu1mc16odJucc9XEaHeoWgvb9X/7t26LPiAYreGB3H0AAAAAgHriFg9O2Ja0S3WblPfVdY6rznT80kFOa3Hr6NTx1V5n9N/HlPbpOd/jbt1mOOOr6/EAAAAAAADUC51060R7QgKk4m3d7nB89S2nbe6W3DgAAAAAABtx1YmWi8Usxw0uRioAAAAAAGynuZrXCfzzlorF7O7lT83V9blRAAAAAABJwA9PtlAsluT94GpnZGkjbhAAAAAAQFKo1V5MtUwu/uN44We4OQAAAAAAScMLP2+TXOR99Tunbe7G3BgAAAAAgASik/oHrZELT12xxi1mAQAAAADAUsaoXWw598Jxgwu5IQAAAAAACSbvBb+wQi688FLuBgAAAABAkqltTTvHgmVRN3MzAAAAAACSjls6yoLZiw7Hnd6fmwEAAAAAkHDyvrrOsFwsdMaWtuNOAAAAAAAkndryqPlmi7rD07kRAAAAAABpwC0ebHb2IryfmwAAAAAAkBLyfnC1QcFY7LSUduMuAAAAAACkhJyrJprbNSr0uAMAAAAAAGlhVHGgTvSXGhEMX73qtM3dkpsAAAAAAJAWvPAEY7MXbnAtNwAAAAAAIEXkXTXMkGAscUbP3IE7AAAAAACQInSi/7iZ2ovgNqIPAAAAAJAmmqvr62T/dSPnXnhBAzcAAAAAACBNjCntY2h5VBgd7scNAAAAAABIE64608zyKPVLgg8AAAAAkDJ0ot9mZHmUO+vTRB8AAAAAIGXoZP8ZA4JRIvIAAAAAAGljZGkjney/I748ylfXEXwAAAAAgLThFg82szxKHU/wAQAAAABSJxjqhwYEY5kzqjgw03EfWdqoOwYSbVxxQx50AAAAABAh76vfGRCMf2c+7l7wB7HZIj84gycdAAAAAETI+Woa9RcG4u6pWWKC0RLuxZMOAAAAqaNarX5Et7uE2vVEfC1omzkgWq4kf3q3Oi3TcR874yOC8X6NwwwBAAAgrYKxU1WOgIivBb5qNFLg7RV3z3TcXXW8WLxd9XcedAAAAEAwEAwZPHWJAcHI/Ih6dII5p6UDAAAAIBipI+eFdxoQjH9mPu6u+jvbAQMAAAAgGCkUDBWKF3h74YhMB725mo9mccQEY+yMj/CkAwAAAIKBYMRPa3FrI/UXfnhypuPeEu4lGO+ZPOgAAACAYCAYMvjqOCOC0VLaLdtxD86Qmy0KbuNBBwAAAAQDwRAh74VXGhCMhfpByGU87jcI1l/8kCcdAAAAEAwEQwSdgD5oQDAeJu5qqtxytNJBPOkAAACAYCAYUoluRbzA21XDMh304dM2EzzY8G2neWo/nnQAAABAMBCM+BmjdjFzwJ4amum4u6pJLt5hOw86AAAAIBgIhgxe+DUzghHsnG3BCH8qeMDeaB50AAAAQDAQDBGisyjEBcNV5azHXcfhHrYDBgAAAEAw0pjoPm5gBuNB4h50ignGqOJOPOkAAACAYCAY8TO+up5OQBeJF3j7wdWZjrts3ctLPOgAAACAYCAYMvjqU2ZO8A6+nOm4u+HXBeN9Nw86AAAAIBgIhgxe+G0jgjG2tF2Ww573VYuczKmf8KADAAAAgoFgyCS6bjDGgGDMz3rcdQw6BHfrauBJBwAAAAQDwZBKdJ82IBj3ZTro7vT+0cF3QrFe6rR2bsqTDgAAAAgGgiGV6C4WL/D2wiszHXc/OEQw3lN40AEAAADBQDBkaA0PNFJ/4QbHZlsw1AWCB+xdz4MOAAAACAaCIZToBt83Ihitxa2zHHad9P9RsP7iuzzoAAAAgGAgGFKJ7s0GBGNO1uOuYxDIzRapPXnSAQAAAMFAMKQS3f+IC4av/prpoI+e9VHBWL/qNFfzPOkAAACAYCAY8TN82mY6CV0mvjzKCy/NdNz98IuC8X6YBx0AAAAQDARDBrd0lJn6i9LRWQ573lO/kivwDn7Bgw4AAAAIBoIhJBjBxWZ2kJq3VZbDnvPVI4IneB/Hgw4AAAAIRhoFY0xpn2hrUpua5EnSK7TXbYvDStuoYJtYnoPx1fV0DF5D5gAAAAAQjD6R99QVJmYLaOvUlkT1KbE8CF5pb8HrmEEvAwAAAAhGWgXDVbeQuCemPRnbg+CpswTrL26jlwEAAAAEI6WCESWtJO7JaFoGfx6baHrhDYKnpZ9HLwMAAAAIRnoFYy7JezKa44dHxvgcPC8nGKXP0ssAAAAAgpFGwRhX3JDEPTHtdad5ar9YngN3+uaC54685bRN2oBeBgAAABCMNAqGq/YkcU9Ic4MHYnsOfDVY8Fom0MMAAAAAgpFawQiOJXlPyPIoN7gwxufgZ4IF3iPpYQAAAADBSKtgeOoHJO8JEYzW4r5xPQb6598rdh1e+DV6GAAAAEAwUioYeVeNInlPwvIoVdYPZS42wdA/X65QfdaO9DAAAACAYKRUMHRieRcJfCK2p/1TbA9Ba2lXwWuZR+8CAAAACEaaBcNTU0jgk1B/oc6M7SHwglMEZ2LuoncBAAAABCPdgrGIBD4BgjFG7RLXM5D3Qk+u/kJdQu8CAAAACEZaBcOdtxXJeyLarFgl01UT5QSjOIjeBQAAABCMtAqGXzqI5D0R9Re/ie0ZqB20uFjoWpY6rZ2b0rsAAAAAgpFWwZBce0+zc1tXPzhE8KDA5+hZAAAAAMFItWCEl5LAJ6HAe95WMT4D/0/ugD3VRs8CAAAACEaKBSPvhzeSwNvewsmxPgOu+pPgTMy36VkAAAAAwUixYOR89QgJvO31F8G1sT4DXqjkTiIP9qBnAQAAAAQjzYLhqYAk3vb6i+CY2B6AUcE2gtey0Gmu5ulZAAAAAMFIq2C0Tdog2tWHJN7qttgZMX+T2J4BL/yS4LX8jV4FAAAAEIw0C0ZraVcSeOvb43E+AnlXDRNb6uWHV9GrAAAAAIKRZsHw1WASeNuXR6nmOB+BnBc8JnYtfvAFehUAAABAMFI9gzFn+2iJjA0t76nhZrZ/DS60JQaraNvGdv/HV9fTMVgkFuu2uVvSqwAAAACCkfZzMGzBV5cbEIylsdY32I4769OCsZ5Oj7J6Bj378sCmSQt2GNT+8k7L26RXtzzsyfJmRAcAQD4J3Fq3Rt3O0e0a3W7V7UHd/qnb5J72tG6P6XafbjfqNky3M3UbpNtHUxiTDXXbT7ehul2kW4tuv9ftgZ44PNMTl2d7/n8Urz/r5vf8+RN1O0C3/ggGgiFBzld/NSAY/8l05+mqs+XqL9Tvsv6uGvxkedvPFTq/0NhR+b/GQtd1jYXKg7q9qFtFt2W6VVfTlug2V7d/NbZX7mloL49s7Cif3dReHqSlZACZAABA35O+PXU7T7e/6DanTsldSbfbdfuhbrslMCY76/Zt3W7S7QXdltQpLm/rNlG3Vt1O0m1Axp41BENKMDw1R/58CXVLlmOe94KbBJeinZel2DZXq/nBHeXPNBTKF2kpuKuxUC6vQSD60iI5mabbrY0dXd+NZj7IFAAA1i7Ri0bTh+s2UyjZm6HbL3Tb3XLRulq3fwsmwYt1+5tu39dtKwQDwagLrcWtzdRfqB9mXOqelztgLzww7fE8YFJ1g6aO8rFNhcpNDR2VzhiFYs2tozKjsaN8rRaOQyLZIYsAAKnEabRAu7iPn3ET3b7Xs4zHJE/0LBla34L71l+37/bMKpgmko07dDscwUAw+oQbHGtEMFqCQzMb87aZA3QMlgnF+s3ozJW0hnLwxM59dVLf2rPUqWphm9vYXhn+uafLn8zEsz2quFPeU6Olm9MS7pXYmDVP7Zf3whG1a+n+5xUrNsdXF7y3BWc4bnj6Cu3r79mcwlXHO15x0HuaH+zvtBb3Xd5GljZK7qBY56Z5V43qjperhr0nVm740/fEKpq9fU+s1Dc/uJnHGmI1vrpekhInCSav42cbqNtVulWqdhHNapxaNTAapH/nxrpdotu8qp0UdDsawUAw1gkzBd5LEv2C67PUhUPEYu2rp9IWvkGPVtdvbO/6mk7eOyyVipW2hkL5yYaOrqHR50+zYBjake7UxMbMUz8Qj5evBif4nfVjuVgFhaQlTtYJRk9h8sW6vVy1mym6HSZ0n/K6naHb3GoyeES3fRAMBKM3GCrwnuJkGS+4TPCAvV+nJWxDp1b7NXSUz2lsr6gkicVKWrGpvfKDQyakULLbJm0Q7RBn4Mya85M52DB985yryvKCEXw/kfEaWdpIf/55cstLS+s2eNtLCdLP79CV/d33/PuVvb89NbPnz06yUjB6doH6bzVZtOm2aYzJ7ad6ZgaSRlRgPiKadUEwEIy1EgwTBd5ecFOW/SLnhfcLjlSelPR4RXUMTYWu7+jEPEy4WLy/zYmEKRKnlPUps8X7FD+4OomxyvvhVSZmfKIlRsmcvQjPTcTsRZ0EI++ptlXLqWpa4WfYJRg9S3+uryaXSIr2r3NSm+vZKvbtarKJdrPaD8FAMFaLqQLvpI6e1S8Bq8iNwM3ZPsmxauioNOhEfErKxOIDReEN7eXjUzQr+pS8YKjrEheoUcE2+rO/bqIP1u2eBI40rJ/zQiU3KxYcU1eZ9NT4HrkbtpZysiBqq/x5+ues8OfsEYyeEfoXqsknEoFT6pTQbqHbPdX0EMXmuwgGgrGaEZDjzayXLh6cWbtoKe0mGOu5SQ3ToImdWzcWuv6QarF4X2sqdN03aELnrkl/xPNe8AfxfsVXtycvTup6Q3IRxWta8t5X4emCMXpWJyE5k4Lx7p93PHXWKgaqZvY0ewRD/7djdXu1mi4u62Myu4tuL1bTychqnb8oCEY6yHvhlRR4C+Op0+RiHf45iSFqbC+fqhPurizJxQrtjYZC1wVJ3t52hZFVwRY+mqx+oLh71BcaEwxPLU7U7kjN1bzo1t7R7lL1F8peCUbPPxdEf28lg4NNK/4ZKwRD//uzdFua0kR62Domsp/RrbOabqKTxNdLUv+LYMSP7pTuM/Bie9bJMHk39AXrL36cpNgc/sTCDzUVKuMzKhbvXzb1VyeBA0O1BElynfzyNjVZfW/4Z4Ny8e4SoJ0TNNt+YpJnL9ZVMHr+zgJnjPrQ+35WW227d3WAFTUY+t+dW00/P+9lEnuQbq9Us0GiJAPBEBGM+QaKC3+TZcHQMXhabila6aikxOVz7ZWDUljEvY5LpSqFIR0Ld07sQ27mbJ15CZrFPMy0XCRtq9oo6U/y7MW6CEb3n/PUWStbJtWzNGqSFo9djAtGtXaGRFb4xlomsHvrtrCaLW5MynIpBCNmxpa2MzNqFp6TWbuobbH4jthStBHzN0lCWBo7ymfrxPpt5EK39srw6FTyRD/nLeFeRpb8JCdZftIOwUjIZhutpaOTPnuxzoJRe16iJVAPryCoQ5fPUJuewdD/e1C1dvJzVoiu9aA1JK/bV5NzvkW9uRTBQDB0on+CkZdaa3hgZgWjJThUcE36ZNvDMXR8db2m9oqHWFSqDR2VzoZC15BUPOfR2Q4m+pbh0zazPjZ++EUb5CJJW9Xqz/p40mcv+iIYy5dDjVG7rPD/a8umTAqG/ufWGagvWBmzdNt8FYnrpro9W80uy6JCfwQj24JhqMD7HZ189M+sYLjBhWzbWeP4SXM3bix03YtcdLeHo12z0vSo62dwofzgRcnuHbi6t1lVL9giGInYqtYNjxCLhxs8F2fd07oKxooF3e/OaCwv/DYlGNXamQ7/yHAifcsqEtc/VqFLt+0QjOwKhqEC72ecDPPuC0am/iI83dY4NE1aMKChUH4Ssags0e0nzQneMWo1/csU+SU/pYPsTpbVmRbJRSK2qtWf80G55yc8WaL/77VgOMtrLh5eLhvv1mQYFIyzyKOrDe9LWs8gJMt52OZ6DAQj9o5bvsDbU9dnWTB0DEK5qf7i7rbKhU6qO6i1qKiGCV2HpvhZv8dATcEXrA1I29yNo3NprBIM27eqdYP9BGPxfLQVrq2CscLWzw+/5/A9Q4IR6raAHLr6vG7r98R9d93eICTv4dsIRgYFw1SBt6vOzKxdeOG2grF+2cYtTpGLnnqLQuXOaEvedM/WBa0GdkX6hrUBcYOfWSYX1m9Vqz/fHWmZveirYKwgEtFAXZtpwYD/cU7PcrHHCcUHKOs2EMHImGCYKvD2g/0zKxhu8BXBWD9k2+XXai7KT2T8bIu3mtor52ajj1H/Jz+AEVxo6ezFlvrzvWKlYNi6Va2r9tSfb1laZi/6LBg14ZrUM1DXhGDYQzSb8wPCsEpGIBjZEgxDBd5vO22TNnAyin65DBfcHebnNl17925RhcrdGZ+1eKGxsGCfzDzwfniygSWYv7Tyu++rFhvlwuatavW9vDlNsxf1EIxoe9oPHJ6KYFjBMkKwSt7UbRsEIzsYKvB+2skw+vr/Kbjs4Ribrl0n2KMzvizqxiHPJeNMkvoJRnCIAcFosy4OtYPQFtsqGFZuVevP2jE6xydNsxd1EYyVgWBAArCuk0EwYk125Qu8Ld82NVZq21O+LjciN/vDtlx6U6HrOwkQgK7Gjsoz+p8P6na7bo/U6ee+1tRRPiX2IHvqNJ28/MqqZ1625ujddod9I/HBbbbKha1b1ebdYIzgYMwpqXrXkMuChbxWXcW5IQhGyqDAW57W4r6Csf6vNTMXEysHRnUHlslERbc7Ggtd5zdM7Dxy0LMvf6AGTX/mL9Xh90xqeOqlj8f7XHVuqsXit9JLPdZSqvMGRu7/adX3foXCXGubbVvVjgq20Z/rTaHrnxEN/iAYAPFzPoKRAUwVeLuzPp1ZwfDCcwSXidxqwyUfU+jaXCfxMy2RipL+LNc0FboObl6LMyea2rtO6lsxd/naoVOr/eKX1uDF993/Rc7oWZ+0aKZ0lnA/87xVM8Wu+rv1gmHZVrWStWo2nxWUJcFYqts03e7RrUW3K3T7kW4X6PZT3a7S7UbdHtVtdgYT83fjc7duI3vic0FPu0y3q3W7VbenqrUD7mxlMoKRfgwVeL+ZupGi3r005QoWvfB7NlyzTuZvMy8WXfd+rtD5heZeHmTX0F45fV1nR5o6ysfG3DHmHDc4T9/rt1ZZ62TJZgo5L3xUuJ95yaJBhc8nQC7s2qp2jPpQJMnMXqRfMCq6tep2nG4Denl9O+h2mm7jewqI08jLuo3V7Uu9iU+1tl3unrqdW62dsr7Usuvax6LvCYIRz6iigQLvoOBkGB2DFwQF4zOmr7eho2uoSbFoKlTGD3l6wV7rLEft5TPX4fc+OvjJ8raxBnZkaYucq+5a8yxWeKUlYv1b4b5miRVf+O7lYeHkxAiGJVvV6uflCmYv0i0Yz+h2om4b1OlaB/SM5M9LiVg83yNPG9YpPtvqNky3RZZc35UWfU8QjHiSXQMneAetmbWLUcWBWZopGjTp1S0bC+WyIblo/1yhfECfBanQdUEvfufSxkLX5UPjXmbSqg7vxUnwS5wxJeODRSZmS6NRcOPfeV99IylyYc1Wta2dm+rPUmH2Ip2CUYxmK2K85v49y4XeTqhYRIJ0SrUaz3Zm+uduqdtNFlzncwhGijFW4B18J7OCIbtU4knTlxttyWpALF6NZh3qdXp5U0f54rX8vbMbOzqPiDWgkbjUToFe0utZQ6HtN1edaAdniPc1LaXdjF6zO72//hxBkgTDiq1qveAiZi/SKRijddtY6Nr30O2FhMnFLVWh06717xliQZ3GxxCM1Ca7Zgq8LRhNNTiaebncVsDhr01easOErkPlD7ArP9nw1Ms71vM6tKxcsRbLsO7+/IRXtoj5+7ptzleP9GHntrPNJtvhEPnBjOLBZq85uDBJcmHFVrU1KZsntGtWMdX1gBYlzq/r9jUD1x8tm/pbAsRisW7nGIjPLrrNMHjdpyEY6cRQgfcbWS7wznnh/YJbAZ9o8Aub04n306KCEe3WFMPSpKaOyi9W83vfbmyv/LBesyWrGdE9JucFnX0ueh4+bTNjz8ToWZ80MFt6rLHrrS2H7EqcYJjeqlZwl73od6X6hWNJ8vyKbgcZjMHGuj1isVy8oVujwfh8zKBkXI9gpDXZNVDg7aunMjt7oZNQyYTDcWcbm32MDpQTlIvF0U5PcV3Lak4e/2/ThM79Yg1k89R+0UxUHeuffmHs+R9X3NBAwfK3zA3gyG2xmpqtamuHkEptZxxG3y8EI/6Zi4MsiMOmPdu72kZUJ9JgQXx20+1VE4X+CEZqBcNAgbdyMysY/uxPCMZ6jqnLHPRodf3GjsoMIbl4o6mj6/OxylJ7xVvJ77110KOdm8YaSDf8eM5VE+v8XCxy2uZuaa7P6fMsTG9nMC42cqFa7gUPiEvPVrWCBfGpn72wRDBOsigWe+v2lmWC8W2L4jPUwPW/o1s/C64dwagno2fuYOgE729mVzBEd5O5w9Rl9uHciF7LRUNHJfbBn8b2ys0r/M5FTR2V+J9hPzxZ38NXYiriHWZwUONp4YJlI9ea94KbkioXxraqrZ32/jyzF+kRjGstjMflFsmFb2F87jIQh70RjJThBl8x9OL6VFb9Iu8GY+RG59T/Gfqi5hoKlRcklkVFh+ZJXFI0W9FzUN+zjR3lT8SfnMa+//+i6AwNM4IR3iksGL8Rv8iWcC/9u5cmWzAMbFXrB19m9iI9gjGtXuc31DkeG+kWWiAX06V201qHRHuxcCy+imCkLNn1g6sNvLheN7a21wL09U8S3HrxCBPXqBPw40QOz4u2oZW6pkLlL9EyqWPun95f5Be2BnvENXthWkDzXjBS+FDPvxj4nt+bZLkwtVWtYP+YjdkLw4LRYHFMzrNAMD5ncXxuEI7FJQhG6pLdBynwFmRkaaPen13QhxOM2+YaGRzRyfjfBASjRfKaGp566ePigezeNSrWUfDAiOz76gLhfkf2LBg/PDLpcmFkq1rB84GsOEgw5YLxsOUxiXaVetmgXNxneXz2EI6Hh2CkTDBcVc7kAU6mqJ28LBVrIxszDJrQuWvsMxeFSmHo1Go2Rh891RzzMpETxK9JfmnmC4IvqWiXuI6Yr2e6bhPStlVtzgseE3oe5kWDPQhGvByegLj8xqBg7JeA+EwUjMedCEaKMFbgHZyaWcEQPJk276mxJi6xoVD5VcyCsWhwoXO3zDwztS07Y0xYwz+LX1OLOkB4iVSnnDypEwVq2E7K++q6VG1V2xIcKlgDeEGm3jsGkufnEhKXJkNy8c+ExOdHWYoJgpHoUcSeEdPi7ln1i5yvbk/z3v/N1Wq+sb2iYhWM6EC7rFE7nO6NmJ6Vtx1/9odl+555Wwn3O0sFZXB67DOT0YGOQsvMpLaqFTx8NFuzF4YE47yExKVftXbAnTQnJyQ+e2VJShGM+mGowPu1aBvCzAqGp2aLCYZOSqWvr7Gj84iYZy/+NTSjGwTkvfDKGJPI7xr4LrwhOrAhce6HH3xfYOOGITVJC4ekZqtaN9iP2Yt0CcbHEhSbvwvH5k3dNklIbHK6vZSVhBvBqOsL/kEDgvF4VuXC8cJtBeP8cvcopzBNhfKoOAVj8ITyUZl9fkbM3yQ6ODGm50W83jBa3y8qGHELd2vnpvr3vBTvdYSP/m9WS2aJq0QxdN5Vf2L2Ij2C8a+ExeYa4fjcnbD4PCQUF4VgpEgwTBR4e8HI7ApG8FWxWLvBAyYuUUtAMUbBeNDJOl747diWSbXGfCL5Bwc4HhIVjJbg0HhnmGI/t6TquMWD3xfDRYnflKO2/G8ZsxfpEYyRCYvNN1k+ttr4XCsUl4UIRkowVuAdfj2ruWHeV9cIFnhfIS4XHeVPxLtzVNfBmReM2hr/MKbk6zjR74Onrpfte9TxMSbJH40/2f/gWR5CJ6LfE3O/OE5m0EWVMzl7YUAwvp6w2BwqHJ/PJiw+5yIYCEavMFXg3VLazcko+gX3hFicW0tHG5i9+H5cctFQKD/pwLvf3QtTsX20G/xMdnOJ+OpM8l7QGnuRuqv2/MDvddUtid6qtjbQtVjm/qtLMttnCCfQeyYsNrsIxuYd3TZIWHy+hGAgGL0bNTJS4P2KiboAi0aexYpanTHqQ9KX2FSojI9vBqN8sgM1hk/bTCd9r8bw3DwrKxjqm7KCEdOp5S2l3eI+PDPvqZtX+rt99ZMkb1Wb90JP6P5XpJcAZlkwNkxYbAYKxmZWAp+dIxEMBKNXo+lmTvB+JLMdvB/sL7jn/4smLlGLwOyYDtVbcMz90/tjFrGPXC+JCsnlBKN0lGz9lxoeU196R8yf/e1opH+lv9wLv5TYrWpry8reZPYiXYLxUgJjkxOMzyMJjM++CAaC0auXopEC73BEdgUjPFcwkfqt9OU1TKhsF9+5F+UbUIr30Vo6Op6ldUru8F2dtAr3P/V/jtzSZwW+z6NXk6R/Mqlb1WpJHsbsRfoE4wXis1rGIxgIRqoFw1SBtx9mdplLlPQLxvlc6etr6igfG1v9RfuCYzCK9xEtuYthkMBxldwhhm2TNohqCwT7oLrvDhltux37uUGrO7+jtvRycfx9Sp23qh1VHBjTMj9mLwwn0JOJz2q5GcFAMFItGBR4y88YecGLcoIR7C99fVoEfhKTYCw5ftLcjTGKlUrrH+s+Wu6r62S/F3IHT+o2oa4f3lfH2bAbnP5z/0ncVrVecBmzF+lMoB8jPqvFRTAQjDQLhqEC7wWZ7dzHqA8JxvmNaFRTXDDaKzfHVH9RQCVWlaSF58RQvyOaH0RJfyJrk8ZX19M/c6oNybFADUh9t6qtHUhYEaoduYyOAsGwKT6jEQwEI82CYegE74cz27nHtF5+FXu9P2HiEhsL5SdimcHoqAwjO1iVYBR3j+EZKsnOwgR/EOyDKnX74G7wHVsOhct74ZWJ2qrWC/+f0P1eGC3FoqNAMBAMBAPBkBIMEwXerspsoihxwu8KS1yuMSMYlVJMgvElsoNVdoa5GHbhWRLXlqQr/W7IFfrWkvbmar7PH3pkaSOBpV2h0zy139ol7MEpidmqVl+T/llz0nrYKAk0goFgIBjZFQxTBd6eGprVvj3nBg8InlZ8oiHBWByHYAwudGa2bmctn63n6v9dDbeVm4UJvyd7mve8rfr8mX314/g/Z3j6Wn+e1uK+idmq1lVnM3uBYCAYCAaCkUbBMFXgPUbtkuFR5gVyIieYHPZwzOPztoqpwHvpAZOSdeipNHlPja//d7W0j2B/dKzsQEdx977JxewPR8lrzJ/z+V7NFrTN3Vj/nWXWb1Vb2/FqBrMXCAaCgWAgGCkUDAq8pWeMZPap72mzTVxiw1MvfTwmwZhLZrCG73MMS4wcPzxSbgajtLfwTOphfYt3cK3AIEGvlwXqvzfL+q1qZZZyMXuBYCAYCAaCYQLd+T5kQDAeymzH7qtvCZ6UfruJSxw8sXPfeASja7IDa3q+fhJDgnuC3AzG9M2Fz+L54rrHetaO0anaMe90VYhmPdehX7/P6q1qazO5/2H2AsFAMBAMBCO9grFAvMDbD67O7Aizp8bKjc4GFxkRjAnlo2I5YK+j8pgDaxgVrn8Nw7qMoPexT1ooWKN0Zh++y7cKLOEaZOvMSp+2qtXPlNA9XuSMLG1Bx4BgIBgIBoIhyRi1i5H6Czf4Slb7dX39z4jFuVUdbuIam9rLgxAMQ7jh6SkQjCmCS6TW7VTnWiH1MmtnegW2ze3LVrX673ewWyGCQXwQDAQjrYLhqaFGBGP0zB0y2anXii+XCMV5SbR9ZpoEo7FQvp/MwIRgyO74Fo2Mi82meuGIdfyMDwnUOOzfh779MGu3qnVVk9jsRdvcLekUEAwEA8FAMISR3nO+5+C3coaTvyMEYz3J1GU2dnQeEcsMRqH8JJlB+mcw8l7QKnhOzDgbE2TdN/+pT0EcVRxo61a1OS98lNkLBIP4IBgIRooFIzpN28AMxoOZ7dQ99X9yBxkGY0xdZnxF3uXnyAzW+Iydb912pL1F4FyJFdq9vXzhRMXJ/4p99rGltFsd+vf51m1V6xYPZvYCwSA+CAaCkX7BoMBbNt53yO2Oo75h6jqHTKjsHtM2tSUygzWM/vvhVTEs1TlEVjDCk+X6pLC9dwIX/9aqeU9dX5/+Jv6Zgt5uVSu1/I3ZCwQDwUAwEAxTmCrwltzy0j7BmCMnGLM/Yeo6YzxobwkH7a1JMNS4uj9LdRhN751gBIcI9kn/XevP1Ty1n8D5Em/W63BMiaVmvdqq1p31aWYvEAzig2AgGGkXDFMF3mNL22WyQ3dnf0wwzl3rsnd+vRg6vrqeloFlcUjG4ELnbg6sRmKDx+r+nW2bOUD0InQfIfpdWfs+83yBmpBr6tfnqB/atFVt3lN/lCncD0bSEyAYCAaCgWCYGuk0UeDtqfmZ7dBddaJcIX3wgOnL1TIwL5ZZjI7ycWQHqxEMV5Xr/Dy9Jn4RzdV8tEOR2KDH2uyEpCVL/9lK7CdOj1Efqt8gUtBgzVa1raVdBbb1rc0AjQq2oSdAMBAMBAPBMDbSaaTA+76s9ufRdpiCe/s3m77epkKlEM9ZGF3NDqycUcWdYniephjqn2aJfV9Gz/romr+/wS/iPx8o/GkCZ4LWaqta3f/dIHRq92g6AgQDwUAwEAyzgiFf4O2FV2Z2ZNlTTwrWuXzevGB03RZTHcbfyA5Wga++FcPzdLeZ70v9l3qt5jTvPVc/ExBuq//cGzF/jnnOiPmbxNDvvGJ8q9rRM3cQmpFi9gLBQDAQDATDKBR4y9JcXV8gQflfnEcVB5q+5MZC1+UxCcZrQ9flcK8MEMcosald3/Ke+q2cYIRHrPazuOo3An3j92IStYLprWqjWQVmLxAM4oNgIBhZEAxTBd5ZHV3yws8IxvkFGy65qdD11ZgEozp4YqWRDGElyaSvijEkvl8zIhgxbLe7mhH4r67yg7QGe0TnUsT8GWZEO1TFJGo3G92qtm3ultHMArMXCAbxQTAQjAwIhqEC7zmZ7cy98Htyy9DUzTZccuPE+bvEJRi6+WQI73/GSnvHVJ/wSSPX4wdnCNYsnbVKaXPVXfHPoASnxhZHN7jY5Fa1uj/6FbMXCAbxQTAQjIwIhpECb1/9Nat9uX753Sq4DO0cW65bi0BXTIIxl2VSH3jGfpmq7Y7dcIjgoZQ/WfnshTpc4KC/ydGuWTEObpxgbKvaUcWB0c5YIoXmrXO2pxdAMBAMBAPBMC8Y4gXe+iV+eVb78ugwL7E4txb3tUcwuu6NaxajqVD5IllCD1q2YjrE8V5zMzLF3cVm/fzw1yv93vrqKYHZi2NjFrWPG9uq1g1/KnP/1HV0AggGgoFgIBimMVXgHfeL1Fb82R8WjPPrUUG5LZfeUChfFKNgPESW8G4iF3wlpu/shcauaVxxQ8Flhb+Viun72uNC8vmW+Fa1I0sbCZwbUvvdo2fuQCeAYCAYCAaCYRpTBd6txa0z2ZF7wTGCcf6nTZfeNKFzvxjrMHTr2pNMobtO4Il4ltuV9jZ6XV7QKfO9Ce9/zy+Odn3z1TSB2o/DZOKopohvVeurC5i9IIFGMBAMBCNDgkGBt3i8fy44Ejvcso4oF9VLxDiLMT7ziYJXHBTT8zTbuDh5apLQd6fjfYMwZxmrW4inD/qT6Fa1zVP76X8XMntBAo1gIBgIRoYEw8wJ3uGfMzu67KmHBJehfcW2629sL98Q5yxGNEuS4SQhp79b7TEdiumZ/+6Edwp9d2Ys/6Uj5m8SHXoX8+9bJjk7lPfUFaJb1QrtAMbsBYKBYCAYCIZdCa98gbcXXprdBFC9LBjnba0TjAldR8e7TKryqLGdjozPXoRfM3X4nNDI+yih784r/4tpcJnATOOtooH01UliW9XWaj5mMHtBAo1gIBgIRpYEw1SBd2vp6GwmgHI74ehWsjEEB0yqbqAloBKnZDS0V07P3LPlTt9c3/O5sS1pjHPr1LVPjC8Q66PaJm3guPO2yvnq1dgTY90Py/b7pX3Elnz54clCsxfjsAQEA8FAMBAMaxJeQwXe+sWdyU7cDU8XrL+wth6hoaPixjyLURk0sTNTmwjkvfCGGJ+lX9nx/RHZyWn5JhT6ut34v6cGlp650/vr37009q1qazO2UwTu1xKntbQrloBgIBgIBoJhTVKihhsQjDCrfbiO91jB+osLbY3D4Imd+8YsGFF7uLlqwai7yMh++MVYn6WW0m52DIiEnxFcXhgdSLc45t+zyNRuegLLlhY7fvBlocGUmzEEBAPBQDAQDIvI+eoRCrwlX+rhZLEEqSU41OZYNBUqhdglo6PyU/ELG1fcUPTsES/YOea6noeteWiiJUtS/ZSvigIH+l1lsO//q0AcZzF7QQKNYCAYCEbWBKM2ff2KgRO8f5LJDry2G80SoTi/Ex1sZbVgdJRPiVkwpn2u46VPi15Ua7BHtCTEGVUcKPL7hk/bLO4lKNG5LXZJunrTxLLOGFpF7DlZCYZmr5m9IIFGMBAMBCP1gtFS2s1I/cWK+6NnCbd0lGCcn7Y9HEOnVvtpCQhjOg/jpiHPzd9E9v4G34lOTu9+xiV2sYrOFnCDB2J+jp63bUcuiQPvZJZgBReZ7Y/k6sGYvSCBRjAQDAQjS4IhtLvHB16sI0tbZLID99WPxUb13NBPQkia2is/qLNcvNbYXj5V9CKGT9ss7wW3vecZj5vx1fVkDksLT7btmZE8RybWHd5MzzD6pYOYvQAEA8FAMBCMupP3whEGXgqzstp/R7UncqOj6rQkxOSQCaWN6niy978GTeiUHc2sFR3PXOUZCjHNXEjIRffsRbN9RfL62n+T+NkLPzjDeCBr2xonOY7LHFftiRkgGAgGgoFg2Jbwmijw9tXt2RWM2M4osHfXn7WgoaN8Tt+XRJVHRUuuBDuZnOOHP1rFLkPx9YG1pPBvWT0FvhaD4GfJToyDF0U3AVh9nzQnwbMXf8QKEAwEA8FAMOx7IMwUeHvqkkx23q1zthctHk0Qgx6trh8VZK/reReNHeXjRD9w29wtdYzvE9+GubW0q/7ZU4WeocetfWBc9c1Ez1646kRrBj1c9XdmLwDBQDAQDASjflDgLYuvThLcBvj+pIWnoX3BMb0+rbuj8ljDhMp2oh/UKw5ai5moIKbnZ6HQM7TUaVEHWPuw1O5BUgVjkk1F8xIHCTJ7QQKNYCAYCEaWBMNUgXfbzAFZ7Lvzfvhrwd1pLktijLQ03LWWcrG0oaOreej46npiHy4qqvbCK9fy9ON/1+97OvvDOpn6rWjy5qsWqx+U2rkfSZ29aLIrluH3mL0ABAPBQDAQjDqOXBkp8J6e1b4756un5JKYcEgSYzRkYtf2Wh5eXYNczG6Y2Hmk6AdzZ38s56onejGDNLkOnViuZ9vbl8R3Nxo+bTOrH5S2SRtESWYCE+N/MBvE7AUJNIKBYCAYqRYMEwXemX0x1BKiN8VG9wwe3tVXVlvw3V65p7Hj1Q8Lj/CeoGPa1at7oGWkT2LhB1/QP+dZMyPsyZBT/VlnJ2/2ovRZ6wLZWtya2QtAMBAMBAPBqFeAzBR4u8HFmey4a1uZSsX5+YS/5HKNHeUH3icXbzcWus4XXbvuTu+/7uvTg96/P8cVN6wVL4eTDY4Mu4kZIPHUhGQlxuGdFsdyQWLi6Kq7MAEEA8FAMBAMWzFV4O0FDZnsuN3gPLkkMbgp6eEaNLFzay0V83tO5J7e0F7e38D3oy8zCPeu1e+JzphoVYfre9Ya7fxlOHl7tltyEkI0G5qs06aDPawVDMHlm3UYpNoPE0AwEAwEA8GwFQq8ZZMhX/1OsIj07DTEbPDESqOWi1sGPdq5qex3Q31Dx3FRLKOs0dkHXmlvfY/O7H4mXFW2JHF72RmjdknUd8pVw5JTM2C39Of98EZmLwDBQDAQDASjDqN/Jgq8gxez2m9Hxe1ygjHr07wp14HWzk110npL3WYD3OBinbhdlffU2CgxinaW0u0tCxO3pfqzHpu4+5Wc3Y/edEbP3MHyAacfMXsBCAaCgWAgGH1PeI0UeIe/z2SnXTuUTSrOixzJrVtTIxfFfSMBTvbp0Ot88OUPEnnPfHVcQmYvRlofSy2YzF4AgoFgIBgIRl+DY6bA2w9/lMlOu7YjkNQs0WMO9Oq7ECXYOnZvZ1EurD/vYrUzGKW9ExDjV6IBButjOaq4E7MXgGAgGAgGgtE3jJ3gHR6ZxT47WiYjljC6ahhvybVkZGkLHbO7sygWPc/KLTadKN1r2mYOsD4p9tXliYhlczWvP+8bFsfybjosBAPBQDAQDOtH1I0UeC+z/vCumNDX/je55S7hl3hLrgWt6vDoQLmsykXOV7enYSmdvpaF9sY56IzqehIUy2ftnb0oHkynhWAgGAgGgmH7iLqJAm9fTctkh10bGRRLgpxRwTa8JVdDlFR7wWVRYXNmZy6iWqiU1Ono65lib1Ksfpiw98LvLY3lg3RcCAaCgWAgGEl4KVPgLThSHuwheJCX4g25GrxwWxPPvl1yocamaROA6LwRS2MdOM1T+yUqmL66nNkLBAPBQDAQDARjXQNj6ATvZI3m1TGp/bbgmvo/8YZcVfIUfMGiMycM7RYVXpq229pzQKGNtRffSl5fFXyV2QsEA8FAMBAMBGPdMHaCtzosi/113lNt7NJlkOap/fJucG2WxaL7HAY/PDmd4qh+bGG8p3af0J68WH6K2QsEA8FAMBAMBGNdR6lOMXKQ14j5m2Sxv8554WSxl3FLcChvyBVww4/ruDydcbmYkeqDF81sWLEm0f9iImPZNmkD/fmXMHuBYCAYCAaCgWCsw4h6MNLAi+I/meystVQJFhMvdsYVN+QNuVwuvp7z1avZlovwTmdUcWCq77MfHGJZ3CckekDEV9OsETUGTBAMBAPBQDCSIxi6437cyH77WcQrDhI85XYib0ene9euvKeuz/isxSLHC76bifs9trSdXUt6SkclWjBcdZclW/w+RmeGYCAYCAaCkRTBqG2Z+hoF3lKCoS4R3KXL4+24PO6H2TQSK76sxJ+1Y5aEMpq9syL2bvBA0sOp5fyXdmxIUBxER4ZgIBgIBoKRFMHwirubWZMcHJLFvlpyNDCqreHtuALu9P7RrkmWn05czzYnWhaWye+Zp2ZZEP9ljhvsl/zvjfomsxcIBoKBYCAYCEYvXx7BqQZeGEuckaWNMpr4zBMTjNbSrrwdV0LrnO2jJXpRApjW5VB5P7wqSSdG1/97Fjxm/nyR4A+pCGaLOoDZCwQDwUAwEAwEo1cYKvCeksmO2p+1o2D9RZk34xoYU9qnZ0YpLaLxZt5Tozm5XfdrNYE0eS+WpEbwtagye4FgIBgIBoKBYPR2RP1xAyN7N2Wyo/bCrwnG+V7ejGuJq/bsKQJP6tKpl/O+ugaxWEEw/PAq46ejpwh9TSGzFwgGgoFgIBgIxtphqsDbD76fyaRHcLbIcYOf8WbsJSNLWzhecFHOV8WEiMUzjh+em+WlUKuRxjONHmKYMtnT1/SQmSJ59QQPM4JBfBAMBCNpgmGqwDujJ7FG++HLSZwazJtx3cXbccMjol24dCznWiYVYd4Pf52K4uFYBSMcYnD24lfpGxxRo428K1pLR/MwIxjEB8FAMJImGGYKvN/JZIF37UTct+R2r5m+OW/GOsmGVxyUd9UwHddJgockLl/LHy1jjLY3jmpGuCF2D57otjCVBxl66iwDtRcFHmQEg/ggGAhGAgXDUIH3M9kcUS19VjDGz/NWjEsUZw5wvPCEaJQ6qnOJYW26/nnhn7uFIpqFin4f9J6RpY3M1Avo+5ZG/PBIZi8QDAQDwUAwEIy1wtAJ3r/JZCftq+NqW2fG36KzHngrChKNWEfnuvjqpOgAyWi2I++r33XvUNW9S1X46P/uj7pHy8kf8154g24jug+c1MLSPTvBrFOd+7egU7h/m5fa2dm2uVsye5FdwbhLqP2C+Ky2fTeBsdlZKDa/t+BaPyL4LFxv9Y03VeDthefQYwNA3EQSJyX1NbFP98GWtRk7sVg28AQDACQRUwXereGBBB8AAAAAIG2YKvB2p/cn+AAAAAAAKYMCbwAAAAAAqBtGCrx9dR2RBwAAAABIG6YKvF11JsEHAAAAAEgbpgq8/WB/gg8AAAAAkDbMFHi/HZ1mTfABAAAAAFJG3lOjDQjG00QeAAAAACCF5LywnQJvAAAAAADoO22TNtAJ/1sG6i/OIPgAAAAAAGnDLR5spMB7TGkfgg8AAAAAkDa88FIDgvGm01xdn+ADAAAAAKSMnK8ekReMoEDkAQAAAADSRtvMAdF2seIF3l7QSvABAAAAANKGmfMvqvr3fofgAwAAAACkjJwX3kmBNwAAAAAA9J2RpS1MLI/S7XVnfHU9bgAAAAAAQJrw1A9MzF7kfPUUwQcAAAAASBk62Z9iQjDynhpN9AEAAAAA0oQbDjEye9F9gnd4MjcAAAAAACBF6ET/YWOCMaq4E3cAAAAAACAteOowU3KhW8gNAAAAAABIC9VqLiqyNiUYeU/dzE0AAAAAAEgLrjrR4OxF1fHUadwEAAAAAIA0MKo4UCf5cwwKxlJn7IyPcCMAAAAAAFJAtDzJ5OyFbk9yFwAAAAAA0oAffNmwXFQdN7iYGwEAAAAAkHRctadO8F8zLhj+rB25GQAAAAAASWaM+lDOC140LRe6Pc7NAAAAAABIMm1zN9aJ/QQL5CLaPeosbggAAAAAQGLlYuaAnK8esUEuouVZzvBpm3FTAAAAAACSyKhgG53UP2uJXESH643lpgAAAAAAJBFPHaaT+nm2yEX38qiWcC9uDAAAAABAkmibtEHeU1fohH6JTXKh273cHAAAAACAJOGWjtKJ/FTLxKLn7IvwCG4QAAAAAEAixKJ4cDRDYKNY9LSHuUkAAAAAADYzYv4mjhucqpP3Jy0Wi56D9UoHccMAAAAAAOrF+Op6jlfc3Wmu5vv0c0bP3MFxw9PznhqvE/dFtotFz85R43kAAAAAAADqiRse8e45ELr9w/HCSx1fDXZaS7s6o4o76Tawu7UWt3a8YGenRR2g/8zno0PpdII+XP+de3SbkwSheF97w/Fn7cgDAAAAAABQR/K+uiaBclCHU7uDy7j7AAAAAAB1Rifbz2dQMKZEW+Zy9wEAAAAA6okX7JxBuXjH8cLPcPMBAAAAAOouGOr8zC2NcsOfcuMBAAAAAGIgOgMiY4Lxj+5dswAAAAAAoM4Mn7aZTrjfzpBclJzRsz7KjQcAAAAAiAMv+GqG5OINpzU8kJsOAAAAABATeV+Ny4hcLHX84MvccQAAAACAuGiu5nXi/VI2irrV2dxwAAAAAIA4cYsHZ0Mugou52QAAAAAAMZP3w6syIBcXcqcBAAAAAATIeeHklNdcnMFdBgAAAACQoHXO9qmVC1+9quXiC9xkAAAAAAApvPCclArGDMcr7c0NBgAAAAAQRCfi96VPLoK/OG0zB3B3AQAAAAAkGVnaSCfkb6ZILhaxDS0AAAAAgClcdXxq5MJVf3fGqF24qQAAAAAAhsh76voUyMUcxw1OdarVHHcUAAAAAMAUOiHXyfnsBIvFK46nmp0R8zfhZgIAAAAAmMYN9kuoWCzMe+pXTtvcLbmJAAAAAAC24KnmxG0764c/ctzpm3PzAAAAAAAsI+eqiQmQipfzfnij4wUNTnM1z10DAAAAALAVL/yeTuDv0KJRtkwq5uU9dWu0w5XjTu/PjQIAAAAASBLR7kst4V6OH3xfJ/a/1Qn+FN3eERMKXxVzXnin4wbnaanYkxsCAAAAAJA2mqvrO/7sTzi+Os7xw3Ojouq8r8ZpIbhXtwlaCqbpfwbREibdXl+FPCyLCrJzXtCp//lfLRGP5r3w93lXDYt+ptOqDqeeAgAAAOLk/wNbmeJ52HOvDAAAAABJRU5ErkJgggAAAACANDCqOFAn+XMMCsZSZ+yMj3AjAAAAAABSQLQ8yeTshW5PchcAAAAAANKAH3zZsFxUHTe4mBsBAAAAAJB0XLWnTvBfMy4Y/qwduRkAAAAAAElmjPpQzgteNC0Xuj3OzQAAAAAASDJtczfWif0EC+Qi2j3qLG4IAAAAAEBi5WLmgJyvHrFBLqLlWc7waZtxUwAAAAAAksioYBud1D9riVxEh+uN5aYAAAAAACQRTx2mk/p5tshF9/KolnAvbgwAAAAAQJJom7RB3lNX6IR+iU1yodu93BwAAAAAgCThlo7SifxUy8Si5+yL8AhuEAAAAABAIsSieHA0Q2CjWPS0h7lJAAAAAAA2M2L+Jo4bnKqT9yctFoueg/VKB3HDAAAAAADqxfjqeo5X3N1prub79HNGz9zBccPT854arxP3RbaLRc/OUeN5AAAAAAAA6okbHvHuORC6/cPxwksdXw12Wku7OqOKO+k2sLu1Frd2vGBnp0UdoP/M56ND6XSCPlz/nXt0m5MEoXhfe8PxZ+3IAwAAAAAAUEfyvromgXJQh1O7g8u4+wAAAAAAdUYn289nUDCmRFvmcvcBAAAAAOqJF+ycQbl4x/HCz3DzAQAAAADqLhjq/MwtjXLDn3LjAQAAAABiIDoDImOC8Y/uXbMAAAAAAKDODJ+2mU64386QXJSc0bM+yo0HAAAAAIgDL/hqhuTiDac1PJCbDgAAAAAQE3lfjcuIXCx1/ODL3HEAAAAAgLhoruZ14v1SNoq61dnccAAAAACAOHGLB2dDLoKLudkAAAAAADGT98OrMiAXF3KnAQAAAAAEyHnh5JTXXJzBXQYAAAAAkKB1zvaplQtfvarl4gvcZAAAAAAAKbzwnJQKxgzHK+3NDQYAAAAAEEQn4velTy6CvzhtMwdwdwEAAAAAJBlZ2kgn5G+mSC4WsQ0tAAAAAIApXHV8auTCVX93xqhduKkAAAAAAIbIe+r6FMjFHMcNTnWq1Rx3FAAAAADAFDoh18n57ASLxSuOp5qdEfM34WYCAAAAAJjGDfZLqFgszA==;" vertex="1" parent="1">
          <mxGeometry x="611.55" y="127.5" width="122.9" height="45" as="geometry" />
        </mxCell>
        <mxCell id="pSl4RCO3KM7pjzlCokw0-75" style="edgeStyle=orthogonalEdgeStyle;rounded=0;orthogonalLoop=1;jettySize=auto;html=1;exitX=0.5;exitY=0;exitDx=0;exitDy=0;entryX=0.25;entryY=1;entryDx=0;entryDy=0;" edge="1" parent="1" source="pSl4RCO3KM7pjzlCokw0-27" target="pSl4RCO3KM7pjzlCokw0-66">
          <mxGeometry relative="1" as="geometry" />
        </mxCell>
        <mxCell id="pSl4RCO3KM7pjzlCokw0-27" value="&lt;span style=&quot;font-size: 15px;&quot;&gt;Метаинформация данных&lt;/span&gt;" style="rounded=0;whiteSpace=wrap;html=1;fillColor=default;opacity=50;" vertex="1" parent="1">
          <mxGeometry x="216" y="420" width="144" height="60" as="geometry" />
        </mxCell>
        <mxCell id="pSl4RCO3KM7pjzlCokw0-77" style="edgeStyle=orthogonalEdgeStyle;rounded=0;orthogonalLoop=1;jettySize=auto;html=1;exitX=0.5;exitY=0;exitDx=0;exitDy=0;entryX=0.5;entryY=1;entryDx=0;entryDy=0;" edge="1" parent="1" source="pSl4RCO3KM7pjzlCokw0-31" target="pSl4RCO3KM7pjzlCokw0-10">
          <mxGeometry relative="1" as="geometry" />
        </mxCell>
        <mxCell id="pSl4RCO3KM7pjzlCokw0-31" value="&lt;font style=&quot;font-size: 15px;&quot;&gt;Отчеты&lt;/font&gt;" style="rounded=0;whiteSpace=wrap;html=1;fillColor=default;opacity=50;" vertex="1" parent="1">
          <mxGeometry x="501" y="510" width="120" height="60" as="geometry" />
        </mxCell>
        <mxCell id="pSl4RCO3KM7pjzlCokw0-42" style="edgeStyle=orthogonalEdgeStyle;rounded=0;orthogonalLoop=1;jettySize=auto;html=1;exitX=0.5;exitY=0;exitDx=0;exitDy=0;entryX=0.5;entryY=1;entryDx=0;entryDy=0;" edge="1" parent="1" source="pSl4RCO3KM7pjzlCokw0-39" target="pSl4RCO3KM7pjzlCokw0-24">
          <mxGeometry relative="1" as="geometry" />
        </mxCell>
        <mxCell id="pSl4RCO3KM7pjzlCokw0-47" style="edgeStyle=orthogonalEdgeStyle;rounded=0;orthogonalLoop=1;jettySize=auto;html=1;exitX=0.25;exitY=1;exitDx=0;exitDy=0;entryX=1;entryY=0.5;entryDx=0;entryDy=0;" edge="1" parent="1" source="pSl4RCO3KM7pjzlCokw0-39" target="pSl4RCO3KM7pjzlCokw0-31">
          <mxGeometry relative="1" as="geometry">
            <mxPoint x="592" y="620" as="targetPoint" />
            <Array as="points">
              <mxPoint x="649" y="310" />
              <mxPoint x="649" y="540" />
            </Array>
          </mxGeometry>
        </mxCell>
        <mxCell id="pSl4RCO3KM7pjzlCokw0-39" value="&lt;font style=&quot;font-size: 15px;&quot;&gt;MLflow API&lt;/font&gt;" style="shape=parallelogram;perimeter=parallelogramPerimeter;whiteSpace=wrap;html=1;fixedSize=1;fillColor=default;opacity=50;" vertex="1" parent="1">
          <mxGeometry x="613" y="250" width="120" height="60" as="geometry" />
        </mxCell>
        <mxCell id="pSl4RCO3KM7pjzlCokw0-56" style="edgeStyle=orthogonalEdgeStyle;rounded=0;orthogonalLoop=1;jettySize=auto;html=1;exitX=0.5;exitY=0;exitDx=0;exitDy=0;entryX=0.5;entryY=1;entryDx=0;entryDy=0;" edge="1" parent="1" target="pSl4RCO3KM7pjzlCokw0-11">
          <mxGeometry relative="1" as="geometry">
            <mxPoint x="429" y="250" as="sourcePoint" />
          </mxGeometry>
        </mxCell>
        <mxCell id="pSl4RCO3KM7pjzlCokw0-59" style="edgeStyle=orthogonalEdgeStyle;rounded=0;orthogonalLoop=1;jettySize=auto;html=1;exitX=0.5;exitY=0;exitDx=0;exitDy=0;entryX=0.5;entryY=1;entryDx=0;entryDy=0;" edge="1" parent="1" source="pSl4RCO3KM7pjzlCokw0-57" target="pSl4RCO3KM7pjzlCokw0-21">
          <mxGeometry relative="1" as="geometry" />
        </mxCell>
        <mxCell id="pSl4RCO3KM7pjzlCokw0-57" value="&lt;font style=&quot;font-size: 15px;&quot;&gt;S3 API&lt;/font&gt;" style="shape=parallelogram;perimeter=parallelogramPerimeter;whiteSpace=wrap;html=1;fixedSize=1;fillColor=default;opacity=50;" vertex="1" parent="1">
          <mxGeometry x="130" y="250" width="120" height="60" as="geometry" />
        </mxCell>
        <mxCell id="pSl4RCO3KM7pjzlCokw0-66" value="&lt;font style=&quot;font-size: 15px;&quot;&gt;git&lt;/font&gt;" style="shape=parallelogram;perimeter=parallelogramPerimeter;whiteSpace=wrap;html=1;fixedSize=1;fillColor=default;opacity=50;" vertex="1" parent="1">
          <mxGeometry x="369" y="250" width="120" height="60" as="geometry" />
        </mxCell>
        <mxCell id="pSl4RCO3KM7pjzlCokw0-72" style="edgeStyle=orthogonalEdgeStyle;rounded=0;orthogonalLoop=1;jettySize=auto;html=1;exitX=1;exitY=0.5;exitDx=0;exitDy=0;entryX=0;entryY=0.5;entryDx=0;entryDy=0;" edge="1" parent="1" source="pSl4RCO3KM7pjzlCokw0-67" target="pSl4RCO3KM7pjzlCokw0-27">
          <mxGeometry relative="1" as="geometry" />
        </mxCell>
        <mxCell id="pSl4RCO3KM7pjzlCokw0-78" style="edgeStyle=orthogonalEdgeStyle;rounded=0;orthogonalLoop=1;jettySize=auto;html=1;exitX=0.5;exitY=0;exitDx=0;exitDy=0;entryX=0.5;entryY=1;entryDx=0;entryDy=0;" edge="1" parent="1" source="pSl4RCO3KM7pjzlCokw0-67" target="pSl4RCO3KM7pjzlCokw0-57">
          <mxGeometry relative="1" as="geometry" />
        </mxCell>
        <mxCell id="pSl4RCO3KM7pjzlCokw0-67" value="" style="shape=parallelogram;perimeter=parallelogramPerimeter;whiteSpace=wrap;html=1;fixedSize=1;fillColor=default;opacity=50;" vertex="1" parent="1">
          <mxGeometry x="64" y="420" width="126" height="60" as="geometry" />
        </mxCell>
        <mxCell id="pSl4RCO3KM7pjzlCokw0-68" value="" style="shape=image;verticalLabelPosition=bottom;labelBackgroundColor=default;verticalAlign=top;aspect=fixed;imageAspect=0;image=data:image/png,iVBORw0KGgoAAAANSUhEUgAAAQAAAAEACAYAAABccqhmAAAAAXNSR0IArs4c6QAAFYpJREFUeF7tnU+MXLd9x8mZtRRFEvJHaWA0SD1CGxSyi0S6xNqiaXZvOdZVcqoX2gkKW4FVwBffiq6EoocAvUWO7aCBVlDQHAqlSY/uQbOAm5V7aHKx5ENQT3SqUSlOYCFBZe2w5mjeYjyamfeHv8dHPn4eINjSkHzk5/fjlz/y8fFpxQUBCCRLQCfbchoOAQgoBAAngEDCBBCAhI1P0yGAAOADEEiYAAKQsPFpOgQQAHwAAgkTQAASNj5NhwACgA9AIGECCEDCxqfpEEAA8AEIJEwAAUjY+DQdAggAPgCBhAkgAAkbn6ZDAAHAByCQMAEEIGHj03QIIAD4AAQSJoAAJGx8mg4BBAAfgEDCBBCAhI1P0yGAAOADEEiYAAKQsPFpOgQQAHwAAgkTQAASNj5NhwACgA9AIGECCEDCxqfpEEAA8AEIJEwAAUjY+DQdAggAPgCBhAkgAAkbn6ZDAAHAByCQMAEEIGHj03QIIAD4AAQSJoAAJGx8mg4BBAAfgEDCBBCAhI1P0yGAAOADEEiYAAKQsPFpOgQQAHwAAgkTQAASNj5NhwACgA9AIGECCEDCxqfpEEAA8AEIJEwAAUjY+DQdAggAPgCBhAkgAAkbn6ZDAAHAByCQMAEEIGHj03QIIAD4AAQSJoAAJGx8mg4BBAAfgEDCBBCAhI1P0yGAAOADEEiYAAKQsPFpOgQQAHwAAgkTQAASNj5NhwACgA9AIGECCEDCxqfpEEAA8AEIJEwAAUjY+DQdAggAPgCBhAkgAAkbn6ZDAAHAByCQMAEEIGHj03QIIAD4QJIEfnfudO+BUj01Gn3VAtBa95T9+8M/9sr+O8tnOPMPg/Hftd6x/zFKDY++euPhv0VwOQvAJ/91t9cdqS2lFwILB4NRY+NZI9n/dkZq58HKw///9TOrs4YNp97UxJnAuMOPRmcnnf2Cc4HLC7C+9PCP1jtHXr2xXfP9KhfvLADHru2+s0QtK1esgYxDpdXQGDXIhAFRaMAKgrfMOr3Wuu4On1drKwaDEMVAQgBMXuuj/V2rgTLqyl5HDRCDOKwYUKdfBCyLDK6EEBkgAEX9GjEoSqqRdPfOnd5UxmxFFo0OjTHbK53OlUOv3mhkCooAVHPX7b2OukhUUA2eZK73n/vyltZ6M7KOP4ugMSFAAFy8UauB3lMX73xjNZpVX5fmhpR3MuJfDqlOAnUZC8HR7/3nRYGyChWBABTClJNIq8GeVn0iAgmYy8uwc/w9Y2zHX6v/bo3dwZsQIACyNmZqIMtzv7QIFvfqaPmwq/V6nesDCEAdZlOqz5MDObDvnzu9po25LldiVCXVGg0gAHX5AtMCEbKTRb6mn+OLtMWxkFqiAQTA0So52e2jnYt3z6wGuxOs3uZXLz2RuX5ZQOLRAAJQ1gQV0n+4U+rCqKOusEhYDN6k89sdplyPEhAVAQTAl4sxJShEOvH5fiFGk0TbR157s18mw7y0CIArwXL5h3sdtU4kMB9aS5/tl/OQEqmN1uuubx4iACWACyVFBOaApPNX8C6t+67vEyAAFbhLZNnrqONEAg9J0vkredTwyGtvHq+UcyoTAuBK0CE/IkDnr+o+EuG/vTcCUNUCQvlSFgFG/mpOJNX5EYBq/MVzpSgCrPZXcyPJzo8AVLNBHbmSWhjkOX81F5Lu/AhANTvUlSsZEbj3/NN2X38Mb/Nlh3RkZ/xNHxi66NDQOvxjaLTuuz7ym1ex4NcA7C46rdQvXagapZ7Q9pRXe3CpyT311eVWTnlT2DEYcOcvfSjH9MnCWmsraHWIWm2dP4oIoK758Wf+ZXfNdNXWRBB8qvlSkbAi8Kszq94OhHBSrJKZA5v3jzu87nR+6fosPcMwIwgSLzDV2vmTFoBp3x2LQUfZI6OtgjcuBnWJXsn+Kp783vNPh3CArOhe+kWQBM4vEHnOn2fE4KcAPjvDVFSQG8r17qyok7cfU5/6bSePcenff/qH939+83MfPNOmjUIhhP7GmAs+j9uyhp8SgjLnFnrp/EQAC7pmnhCcun1A/cV/HSrdsctkeOv3Hwxe+fYX18vkCTVtAKH/oKt1v86TdfLYl4gIBkdee9Ob3YkAllju09d2t7RSjyj3i68frWXkn63Kf/zx/a/88G9PvpHnXKH//pvn/3y3q/7vdBP1bGLUX9bOnANOvHZ+IoACHjlZH7CHUO6vDdjR30YBdV9tiAKa3O1Xx3NzCZtP9kHYR6HT603eOz8CUNCak+8f7hvMzv/7bxwumNstWexRQEOjf+2r525W/cjawJoxZuB7bSKrP1OAEpY8dm3XRgJ2SjBeA/ARBfzsD+7//Pv/cPJUiWoGk7Sh0d/bAlowoB0qggCUhJd9DNVXFPDex0fq5ucfRLkW0MToH2rYX9LNvCVHAEqinp4O+FoMjDEKaGLln85f0pljeB3Y5z6AovgyEejdWen5WAuIMQq49/zT+9Ololxd0oW22u/SFp95iQAq0p48IrzgKwr46Rfu//if/+7kMxWr6z3b3efW3zuof/tJTzduZAXdU9tqvQ0C4IDXLgr27qxs+ogCfnNo9ODT97tf+Nb2iUY+I10Gk+/FvyOvvensx2Xa16a0zuCOXdutdX93iFOAzAGyqcCLrx/t1bEleNbR3v2EeenvLz31j6E74H//9V/97LPdX5z0Uk+BgzG91DPQmyAAjoaxUcCp2wc2694abKt598houPXKnzgfBOnY5Nzs7z73tQ8O6/dWchMKJGD0d4OIALjxU76jAK10/4WrJ4L91Njrm69c/tOD2+O9ErVfjP7OiBEAZ4RK+YwCHqyYGy9efmpVoNq1FPHv3/zu/64+duUztRQ+VegH5mN3PvW9nd+r+z5tLx8BELDwJAp4x9cTgW5XHw9xMfA7z95a+8rBf7r+Ryse3l9i9Bfw3AiOBQ95EXDaAnaH4KnbB3o+1gI+PLhkcP7qk95eGS3qaZc2br7z9UMv9Y7oO0WzVE7X1fp4k6/3Vq54YBmJAIQMkr0nkGoU8Mrmrd7ennln8+PO36ssZBEW/wphyk2EAOQiKpZg8trw9fW3P6bW3j5YLJNTKrN9/upTfnpbgXpe2rh5/fHu22tfO/jtAqmdk4h8Gde5Fi0oAAEQNGL2olBqUUA2+tu5/58d+L4g0QVFMf8XY4wAiKFU6tiPdq8ro9ZSiwIubbx1WSm9+aXHfqxOPfYTQaLzi2L+L4cYAZBjOX4cmJ0XkEoUkI3+FqMd/T08AeB9f0GfRQAEYWYvCNkifUUB2ugLL/zgRGPfEXj52VtbRpvxGfieBIAXfwR9FgEQhHns2q7dAWejgPHV9ihgevS37bULgI933xYkOrcoBECQMAIgCHNWANoeBUyP/h4FgCcAgj6LAAjCzB4FThfZ1ihgdvRHAAQdyWNRCIAg7HkC0NYoYHb0txi/fuglVfcuQE7+EXRYjgSThTlPANq4FjBv9CcCkPUlX6URAQiSnl0DyIpuWxQwb/T3KAAsAgr6LAIgCHORALQpClg0+nsUAPYBCPosAiAIc3ofwGyxbYkCFo3+CICgI3ksCgEQhL1MADxGAcNuV6/XdV7ApY2bC8+A9LQRSPEmoJzTIgByLPffBVhUpLcooKZjw5aN/rbNvt4F4AMgck6LAMixtO8CLD0h2Z4cfPaNwz4+LV5LFLBs9PcqAMZcaOpjmoLuEkRRCICQGbJjwfKKizUKyBv9bbvtNmBP5wHwJCDP0Qr+jgAUBJWXLG/+n+X3GAWIHhtmj/ua+Z79I0jsJiC7GcjHxTRAhjICIMMxd/4/fZvYooAio79tn1cBYBog4rkIgADGouF/rFFAkdE/a5unNwLt7ZgGCPguAiAAsWj4P30re3rwqdsHBO6+vAjXD4nYo761NteLVtTXkwBbH6YBRa2yOB0C4Miw7OgfWxRQZvT3vBBIFODouzY7AuAIscron93SVxRQ9UMiy7b9LsLmcx1gXAcOCHXyYATAAV/V0T+WKMAe9f3hXHutLCKP6wC2arwbUNZAU+kRAAd42SnADkWoUKOAKqN/xsHb8eCTG3JGQHUPRAAqslv25l+ZInt3VlT/jcNlslRMW+5DItlR31Vu5n0aoNTQaN0/+uqNQZX6ppwHAahg/UUHf1QoapwltCjAZfTPGHieBoynAl2t1/leYDkvRADK8VKu8/55t/MVBRQ9Qtxl9M/a53Fb8DRSRKCkPyMAJYFJzPvn3TKUKEBi9Lfta2AakGFlUbCETyMABWGNR36jLttPfxXMUipZKFFA0W2/RRrnezFwqk7RRALvP/flLVvvlU7nShPTFwSggCdPwn77SKxXIHnlJHYx0ApB3deifQFSo39W/wajgODXBH537nRvzxj7EZlsQGlkIRMByOlt0gt+y27XdBQgOfpn7WwwChiLgDFmO7SzA+yor7Uef05t5vIuAgjAkh7pssuv6ije1IdEpEf/QKKAoERgzqg/z028igACMMcEk2f8dm5Wa8g/z/pNRQF1jP6BRAH7i4NN7hVYMuo3KgIIwBT+cbjfVVt1LfQVjQp8RwF1jf7TUYA9MNTDh0OLIPY2wtoR/8FodHZBuJ9XVy/1RACUsmf5bSqtzjbd8fdHzHdX/mdj9/DjeR7i+nu2L6DO0T+gqcAsrm2j9ZU6dg86dvzpetYuAkkKwGRhrxdSp5+2uh6p9Qv/9gm7Qlz3FGRojO6Xed/fQXSGZw9tblccDR1um5t1aA8XUVrvGKWGVQQh6/D2TjW0r1YRCF4AlFL9XBMuSGCUekJnnUirnjL7HarujlW1yurDY4Uv/OrM6sWXN25tGjV+TNSKyx5M8s3D/cGeGR8uEix/++Rg6s+YvTHG/tv+pbW29c/aUMu+kBmj1yYCMQhAKzpAoUZoNbj7l6vrWdqyh3EUukcziYbnrz553N56shJuDxjlKkegFhFAAMoZoc7Uw7tnVsedJLvaEgXMHkt279zpTfVwEwxXOQLiIoAAlDNAXamHex21/utnVj8SatqbtSAK2B/9p+GVfCxWF/cYyxUVAQQgABewi353vrE691322KOARYeSFtwUE4B1gqyCmAggAA3bd1nnb8FawNzRP2sXIuDkfCIigAA42cAtc5HOb+/g4zm9W0vm5y5y/gAi4ETe+dVnBMCJf/XMRTt/xFHA0tF/mhwiUN2PXD+VjgBUZ18151CPVH/RnH9RobFFAUVG/zkiYN+/2KwKNrV8EoehIgB+vWbhan+RakT0RKDw6D8rAg5754sgbE0aic5vYSAAvlxiZpNPldvGEgWUHf1nWfCIcLl3SH4SDQGo0hNL5sm295bMNjd5BFFApdEfESjkHSIr/9N3QgAKca+cqNJ8f9ndQo8CXEf/OesCob87UNk5SmYcdLXuS58biACUtELh5AIh/6J7BRwFiIz+rAt81PJS8/15/oQAFO7RpRL2755Z3S6Vo0TiUKMAydH/kSnBudNr+uH7AyG/SVjCioWSiof8s3dFAArZoVgiybl+3h0DjALER/9ZBoIHbeThbfp3b4eZIgAypt7e66iL817mkSn+0VJCiwLqHP1TEoI6w32mAPK9cVuP1JWym3qkqhFQFFD76D+P2WQHYVs2D9WyyJfna0QAeYTm/+59xJ9XjVCiAJ+j/yIhiHQD0TjUb+qrQJalhADY011SWJixi3o7dS7uVdGiAKKARkb/hRGB/dKOMWenvrhTBWvdebzN8fMa4i4AP9q9HsppunmNrfB7kJ1+uh1NRwFNj/6LbDqeHoQlBsF0+mlmzgLQxNdzKnTkolnGHX6vowY+F/SKVm5eusmZ/o1tljl/9UlnH3Jpf5G8U2Lw1Um0WvdBnuODRY0xA9Xp7FQ5abhIuyTSOBtv8uHMLWVP3Q35MuPTXqevHfuXmDr7IrxNRQGhjv5F3HBfFOypv6PREzMn/c768iNHtU3dw3b0h793OjsrSg2ld+sVaU/VNM4CUPXG5JMj0FQUEMPoL0e5nSUhAC2xq+8oIObRvyUmF2kGAiCCsflCfEcBjP7N21yiBgiABMVAyri08dZlpXTtJ+ow+gdicIFqIAACEEMpwlcU0O3q49/aPrFsYSwUJNQjhwAC0DIXqTsKYPRvl8MgAO2yp6o7CmD0b5fDIADtsue4NXVFAYz+7XMWBKB9NlXfefbWmtbjz3CLXoz+ojiDKAwBCMIM8pWoIQoYnL/65P6ny+VrTIlNEEAAmqDu4Z7SUQCjvwejNXALBKAB6L5uKRgFMPr7Mprn+yAAnoH7vJ1UFMDo79Nqfu+FAPjl7f1ulzZu2sVAl9dfgznwwzu8BG6IALTcyK5RgDF6/W9+cGLQckzJNg8BSMD0DseGMfq33D8QgJYb2DavahTA6N9+50AA2m/jcQsrRAGM/gn4BgKQgJGrRAFa6f4LV0/U9nmzRLAH30wEIHgTyVWwRBTA6C+HPeiSEICgzSNbuZc3bm0aNf7A5tKL0T+PUHt+RwDaY8tCLSkQBTD6FyLZjkQIQDvsWLgVeVEAo39hlK1IiAC0wozlGrHkHQH2/JdDGX1qBCB6E1ZrwGRvgP2y7mSbsNk+f/WpfrXSyBUrAQQgVstRbwgIEEAABCBSBARiJYAAxGo56g0BAQIIgABEioBArAQQgFgtR70hIEAAARCASBEQiJUAAhCr5ag3BAQIIAACECkCArESQABitRz1hoAAAQRAACJFQCBWAghArJaj3hAQIIAACECkCAjESgABiNVy1BsCAgQQAAGIFAGBWAkgALFajnpDQIAAAiAAkSIgECsBBCBWy1FvCAgQQAAEIFIEBGIlgADEajnqDQEBAgiAAESKgECsBBCAWC1HvSEgQAABEIBIERCIlQACEKvlqDcEBAggAAIQKQICsRJAAGK1HPWGgAABBEAAIkVAIFYCCECslqPeEBAggAAIQKQICMRKAAGI1XLUGwICBBAAAYgUAYFYCSAAsVqOekNAgAACIACRIiAQKwEEIFbLUW8ICBBAAAQgUgQEYiWAAMRqOeoNAQECCIAARIqAQKwEEIBYLUe9ISBAAAEQgEgREIiVAAIQq+WoNwQECCAAAhApAgKxEkAAYrUc9YaAAAEEQAAiRUAgVgIIQKyWo94QECCAAAhApAgIxEoAAYjVctQbAgIEEAABiBQBgVgJIACxWo56Q0CAAAIgAJEiIBArAQQgVstRbwgIEEAABCBSBARiJYAAxGo56g0BAQIIgABEioBArAQQgFgtR70hIEAAARCASBEQiJUAAhCr5ag3BAQIIAACECkCArESQABitRz1hoAAAQRAACJFQCBWAghArJaj3hAQIIAACECkCAjESgABiNVy1BsCAgQQAAGIFAGBWAkgALFajnpDQIAAAiAAkSIgECuB/wcM/xGXh/3sSgAAAABJRU5ErkJggg==;" vertex="1" parent="1">
          <mxGeometry x="104" y="427" width="46" height="46" as="geometry" />
        </mxCell>
        <mxCell id="pSl4RCO3KM7pjzlCokw0-79" value="" style="shape=image;verticalLabelPosition=bottom;labelBackgroundColor=default;verticalAlign=top;aspect=fixed;imageAspect=0;image=data:image/png,iVBORw0KGgoAAAANSUhEUgAAALgAAAC2CAYAAABqOUe3AAAAAXNSR0IArs4c6QAAAARnQU1BAACxjwv8YQUAAAAJcEhZcwAADsMAAA7DAcdvqGQAAA7FSURBVHhe7Z1LjBzFGcerenbXu4v3YYMxAYwNJl4vIcJIHIiEEiuQXDEnHgmynSAlt6CgiATlYUVKAgckn6JEQWBEyOMQ4WtIiIwSpNwgUhRYC8dgOzyiYPblndn1Tlfqm6k2s+PZne6u11fV309aT9XY8k7X/PubX1fXdDOCIAiCIAiCIAiCIAiCIAiCIAiCIAiCIAiCIAiCIAiCIAiCIAiCIAiCqCin9++bVE3CEyG9B1w9ogUGs1ZbPiqbB+TPROtJxubkz/Fmc9OjN554Y7b9FGGTM1/ce4hzfkQwtlM9xZhgr/JEHNnx57dOqGfQgTrg5750yz6RiuNrBnUtc0nC91//p3+9ofqEBc7cPX1MPhxs93ogxOEb/vIW/Bt0JOoRJWmaHtsg3MAE7ACkLfZ4955bjsiH9cMNcP7c2Xv27lc9VKANuKwaUkn4baq7LrAD1JIG6AthGCgcXIhHVXdDhOC5/p1rMFfwQ+qxP5xTwC2gCkd23NOPe0/v37tLtdGAMuBqoO5t93IhB5c0xTgFC0cykOQvSo5AGXB54Fi4IpOmWKGQVydCUMDzkHBW3OdIU4zSPgbKrSct4HgI28EmuoDDAPWZOVkP0hSzlCoY8mATVRVHF3CdASJNMUrZsTyAqdCgCrgamPIhJU0xQhk96WACU6FBFfCC01K9IE0xg15AyxxDWQKXohgYGNIUI2iOIb8Ny5w4moC3B6T/mcu+kKZooaknlxio4TiziSbgBgekyAki4nKMFAhR5Ey0RdAE3OSAqCpElMPU2E1geB9QBNzUx2IHFPASWHgfvFdxLBXc9EBQwMthety8L8DyHnA1rWfam1F8PIYGL7j2JA9l1hWZxHvAk2TZ1scYBbwArW9PlVsisSGl1hUZxH/A7Q0ABbwAIrWzEtD3AiyvAbdVNRSkKcWwNlY+F2B5DXia5vs6lAYU8BxYLjSAtwVY3gKuvbAqHxTwHNjSkw68LcDyFnADC6vyQJqSDwdj5EdTPCqKsw2mgG+AAz1pw9kXfMyJewl4a0PlBquubSjgG+BATy7hYwGWl4A73tAJqFKqTVyOywLgvNj4UhSnG+qySoWEMz1RwO9yfUzkPOCwgS4HVUGa0gNPO77T3+mjgjsfVNihSFN64mPHd/q1QqcBt7SwKhekKWuBA30Pn6QtLK4/ugynAXe5YT0gTenA5yo/lwuwnAacc39VlDRlLVV5L5wFvL1BBr5UrAFpShtjX/DWwME6pBbOAu5qg/pAmiLx/SUEhZMFWC4Vxfugkqa08aknHThZgOUk4HADI/lge2FVLqquKRj05BPsr0dyVMH9LXjvQaU1BYmetHGwAMt6wB0vrOpL1TUFiZ5cwvZdIawHHONtLZpNgfKOYLbBpSdtbN8Vwn7AEd7WAlsVcwUqPVHAJ6rNBVhWA+5pYVUO8Fz91CWId+wwAy5Be0CHsZrZpD3njEtPOjhoa07cWsDVC974DrkeqZqmYL9uuq11StYC7nlhVQ4qpinIr5tuq+BYC3gIFbIqmuJzmXJ++G02pm+5ejQKvNA0Fa+rLmLEP7jna+e5IGXJfi7Ej1QXM8/f8MqbRgujlYCfvXv6qGDsW6pLEHmZkwE3erBpRVFkuNHrCYGSCbVuyRjGA45pYRURImbXLZmv4HSXM0IHwwuwjAZcvTC6yxmhhcn1S0YDjnFhFREeJtcvmQ04woVVRHjA+iVTd4UwFnB4QTgXVhEhYuquEMYC7vM2FUSUGFmAZSTg2BdWEWFiYoGYkYCPTjQeGRyWgkIQhkhqjA2P8e+rbmmMnKpvfGPP0sAQG0lTxlYucLYsf1aWGLvYsLISgIgQCPTQqJChFmxwmMmfdsFcPM8emHzx5O9bnRJoJ/D8g3vuGr+K/VV119C8KMO/0A48PBJEJ7VBqNKCjU5CqHsbgMzNG5uPzdyuuoXRVpTBIf6Yal4GbMAVWwXbuiNl1+xtsslr03U3hKgGUKkhE9tuStn2TzfZxDUbZ2JwRNyqmqXQLquZnqhuLqCyL36UsPocZ2lTPUlEzaYrRCvYULGLoqMpWhX844emdxYNNwCVHfbcq+UeDFUd+kScgH5Apb5yZ1oq3EBtgD+gmoXRCnitJr6pmqVI5G/PBoCCHg+gIWPbPtFS3fe1NsDuVM3CaAWc18TnVFMbCnocgIbAJ/PYNtEqYCaQjr5dNQuj9RIGB5nxyxBkQQeFgUpAhAHox6X3zVCwM3jCOOiw6hZCr4IPiM2qaZysEkDgCbzADMhVu9LWTJnNT96Ep/epZiG0Ai7daEA1rQCVAJQFBpC0BR/g2TDdBydobJMMlLuAa+mAwwke1bQODCB8/MGAEv6Bqg3BBs92BmdbVKsQpQNeS/gdqukMGFCq5n7JqnYoJ+y0FMUHUM237W6WnlMlygEH/FBcnFbtDspOaAQXcADcHA5q4IidsA+chYQDfheubZogA56RrWkgZbEHKAmchTQ99eeKoAMOtA54SFmM41tJTBF8wAFSFrNgVJI0ZQ3VLEQUAc/IlIXOgJYHq5I0m2xGNQtRejNSkbykmqgAZYHqA1WIyE8sStJN6YBv+c2b76omOqD6QBWiE0P5CGGWRDTZ26pZCK0PotUVVldNlGQnhkhZ1ge0LoRZEpGyf6pmIbQ2K13lc6qJFqhKpCyXAzt9SAfmZZVYK+Blxd81pCxraa8lCWdqtbnKVssqsV4Fv8iOq2YQkLKEeXJstcFLH+9pBXzixZmjqhkMVVWW0JSkE1nBT6hmYbQCDsi9a1Y1gyFTFqhmVSA0JelmdVUcU83CaAf84kr5vcs3UM2gqsWsLKGv14GZuq2/Pfk31S2MgYCLp1UzSKCqQXULZX1zXkJWkk4uNvgfVbMU2gGHvStETekEqhtUuViUBXZWULAYFqDpFlDtgAMrDfYH1QyaGJQFvqR95a44LpEHhVNHTwAjAR9/YeYRmKtU3aAJVVlgp4QvaMMP9rOSeVlp8F+oZmmMDcVKnb+mmsETmrJkShLTJTagYI6/8Nb3VLc0xgK+upIcFCncPygeQlCWmJSkk+VF/rxqamH0ot0LB6deGhkX0d0IFi7kP/seR3VBf9jpxrfHVbUzYGpw+JcnR1VXC6O2Nvb8zH2xuHgnLQWQVRJLmGJUkk5k9X5CNbUxfjjSmOffUc2ogAO3SwdxHpUlViXJWFniH5hcAmI84PDi4LYTqhsdrYDJ6ukjYHBMENMsSTdwDLdcT0pfKrkXVobq4kpyIEZVyXCtLLGdiFqP+nzylOlvilk7apr9yp77N29lv1PdaFma5Wz+w8TarVhgXn7yunirdobuzabWw+q0wPzDU8/IKvd11Y0WW7MsoCRVWPEIZyyHfzVT6uKa/bBaF+AMZ8w+nmFaWaqiJABMCdYvJPtU1zhOJnYvHJ56e9NmsVt1o+bCec7mPihfN6qiJAAcVC6cZ5/XXW+yEc7OXFQp5KAq588mrdslFqEqSgJAuC/Msgd17mKcB2cBB6oUcrit+ex/klx3eIZ5dV9Tjz4ALWksssO2ww04DTiwcGjqxMiYKHU7ihDppyzw3dAtsN6lAkoCtJx7oTbt6sJRzgMOzD+892cj4+njcPcs9VTUrKcscBmL2C6VthHLi/zUFc/N3Ky6TvAWMLjHz+g4e7nMnZJDpFNZQElglWKIF5QvA/h2fZ4/C7Nq6ilneK+gi4emXh8eE9amibDRkNV8aMjcTVKx49K3e+F9mOHs1dJs8mRsa8l7kcpyMnyH3MzPyA7iNeamACUB3/YVbgCNA8euLKncquQW2VDBFtLH+SnZmG/3Y8KnknSD7iAvRmUR18mBlj+9EGfl372vOhHgW0m6QRdwIJZZFnAufqv8o893U9KPZXX/t2xYWrDlClCSleXkbkzXjkcboNCVJR2Sof2sbOR07ZCVBZOSdIO+QoaoLGKbHNgbVacgoSkLNiXpJggFCEVZWkqyV/4x3uqWJhRlwagk3QTjuNiVpaiS9AOzsmBWkm6CCXgGRmXRUZJ+iHPy/35PdRCAXUm6Ce58GqYTQ60XIJXEVrgBfr38dLhJNhCcGMJw4qYowVXwDN/KYlpJ+pHW5e8DZVlq910SkpJ0E2zAM3woSzopw7ZHdRwj5OEc/1B1HBCaknQTfMABV7MsLSWROsKlc/sk/Z/cwWDewvIsSwizJP2IIuCAbWVJpYokcFZyU7vvG5vKErKSdBNNwDNsKItPJemHaWUJXUm6iS7ggCllwaIk/TClLDEoSTdRBhzQVRZsStIPHWVpK0nylIkLzmMj2oBnlFEWzEqyEXD2k52Rb+pH7X4eQEmW5tmXbV6bxCfRBxzIqyyhKEk/UunkyTnZ6KMstq4HiIlKBBzopyyhKUk/0gW5PWDSPZQlZiXppjIBz+ilLOmYDMO06kREL2WJXUm6qVzAgUxZ5NZztlMOwjXqLyIlU5bGbPxK0k1FLl6wFvhohos+pjezRuzhBvhWqSTD/OdVCzdQyQreyeJPpbLswLX81iSrc1JJzkoleaoaStJNJSt4J5ufmLl96WTypPRV78tvTbP8Hj9VP12brmq4gcpX8Izzj++5a3QHe3lgAuc3hooAO2v9Hf7s+I/DX0uiCwW8i9CVBZSkcY4dnnwyjrUkulReUboJWVkyJaFwfwJV8HWY/e6e+4evZ8+FoCykJOtDAd+Ajx+b3jl0dfrKpmvx3pWClGRjKOA5mP/h1DMju8TX+CCu8Vr5kH+w/H5y55an41neahoKeE6wKUv9FD8+dmTmPtUl1oECXgAMytJcYqv10+yrpCT5oICXwJeykJIUhwJeEtfKQkpSDgq4BqAsmz6V/n1ou7C2ZIuURA8KuAEWjky9NLJbHFBdY5CS6EMBNwQoy8iN7Ne1UTagntKi/g5/dewHM/tVlygJBdwgJpQFzkouneLfnvjJzFH1FKEBBdwCZZVl9SM+Wz+b7CMlMQcF3BJFlYWUxA4UcIvkURZSErtQwB0AJ4aGrhYPdc6Zw/Tfyn/5a6uzyUFSEoIgCIIgCIIgCIIgCIIgCIIgCIIgCIIgCILADmP/B2xR4FF2TzhoAAAAAElFTkSuQmCC;" vertex="1" parent="1">
          <mxGeometry x="440.34" y="132" width="60.66" height="60" as="geometry" />
        </mxCell>
      </root>
    </mxGraphModel>
  </diagram>
</mxfile>
